<svg xmlns="http://www.w3.org/2000/svg" width="56" height="18" fill="none" viewBox="0 0 56 18">
  <path fill="#fff" d="M16.184 14.915V6.82a.07.07 0 0 1 .02-.051.07.07 0 0 1 .05-.023h1.558a.075.075 0 0 1 .075.074v2.917h.023a2.113 2.113 0 0 1 1.727-.754c1.224 0 1.616.8 1.616 1.86v4.072a.074.074 0 0 1-.074.074h-1.563a.074.074 0 0 1-.075-.074v-3.92c0-.46-.479-.602-.785-.602-.307 0-.87.201-.87.776v3.746a.074.074 0 0 1-.074.074h-1.554a.074.074 0 0 1-.069-.046.073.073 0 0 1-.005-.028Zm12.409-1.597v-2.78h-.718a.073.073 0 0 1-.052-.022.075.075 0 0 1-.022-.053v-1.01a.074.074 0 0 1 .05-.07l.958-.28.51-1.597a.071.071 0 0 1 .053-.041h.838a.07.07 0 0 1 .074.07v1.58h1.257a.074.074 0 0 1 .075.074v1.279a.071.071 0 0 1-.072.072h-1.26v2.6c0 .271.153.436.53.436h.718c.01 0 .02.001.03.005a.075.075 0 0 1 .043.04.08.08 0 0 1 .006.03v1.123a.078.078 0 0 1-.048.07 2.908 2.908 0 0 1-1.197.263c-1.253 0-1.768-.743-1.768-1.79h-.005Zm24.33-.002v-2.78h-.718a.074.074 0 0 1-.074-.075v-1.01a.074.074 0 0 1 .05-.07l.958-.28.51-1.597a.072.072 0 0 1 .07-.05h.838a.07.07 0 0 1 .074.069v1.575h1.257a.074.074 0 0 1 .075.075v1.278a.072.072 0 0 1-.072.072h-1.26v2.61c0 .271.153.437.53.437h.718a.073.073 0 0 1 .052.021.074.074 0 0 1 .022.053v1.123a.076.076 0 0 1-.048.07 2.908 2.908 0 0 1-1.197.263c-1.27 0-1.785-.743-1.785-1.79v.006Zm-20.275 1.597V9.165a.074.074 0 0 1 .075-.074h1.403a.072.072 0 0 1 .07.05l.162.585h.024a2.09 2.09 0 0 1 1.708-.755c.835 0 1.238.376 1.463.958h.048a2.06 2.06 0 0 1 1.846-.958c1.224 0 1.617.8 1.617 1.861v4.071a.074.074 0 0 1-.075.074H39.43a.074.074 0 0 1-.074-.074v-3.889c0-.46-.433-.637-.74-.637-.354 0-.881.225-.905.742v3.794a.07.07 0 0 1-.02.051.071.071 0 0 1-.05.023h-1.568a.077.077 0 0 1-.072-.074v-3.899c0-.46-.46-.637-.795-.637a.843.843 0 0 0-.85.814v3.722a.077.077 0 0 1-.072.074h-1.559a.077.077 0 0 1-.077-.072v-.002Zm9.442-4.518V9.339a.077.077 0 0 1 .06-.072 11.85 11.85 0 0 1 2.275-.27c1.507 0 2.395.363 2.395 1.99v3.929a.074.074 0 0 1-.074.074H45.26a.072.072 0 0 1-.07-.055l-.17-.582h.068c-.424.59-.987.755-1.677.755-1.106 0-1.695-.86-1.695-1.873 0-1.53 1.118-1.837 1.954-1.837h1.437v-.383c0-.48-.36-.587-1.724-.587-.578 0-1.198.046-1.224.046a.08.08 0 0 1-.07-.08Zm3.023 2.057h-.934c-.496 0-.817.189-.817.718 0 .57.41.7.802.7a.91.91 0 0 0 .958-.958v-.48l-.01.02Zm2.7 2.461V9.165a.072.072 0 0 1 .083-.067h1.39a.07.07 0 0 1 .071.06l.165.893h.024a2.005 2.005 0 0 1 1.818-1.07.075.075 0 0 1 .069.046.073.073 0 0 1 .005.028v1.6a.074.074 0 0 1-.074.074h-.398c-1.07 0-1.436.429-1.436.958v3.216a.077.077 0 0 1-.072.074h-1.562a.076.076 0 0 1-.084-.064Zm-25.846-2.868c0-1.873.718-3.06 2.802-3.06 2.083 0 2.814 1.197 2.814 3.06s-.73 3.06-2.814 3.06-2.802-1.175-2.802-3.06Zm1.839 0c0 1.013.148 1.633.958 1.633.81 0 .975-.62.975-1.633s-.151-1.624-.975-1.624-.958.61-.958 1.624Zm-10.819-.585c.081-1.601-.48-4.221-1.81-6.365-.037-.055-.096-.033-.084.024.088.326.11.917-.408.882-.92-.063.032-2.031-1.987-3.396a.04.04 0 0 0-.06 0 .043.043 0 0 0 0 .052c.139.264.22 1.085-.098 1.365-.256.226-.719.166-1.18-.574A3.2 3.2 0 0 1 7.396.076c.04-.062-.013-.086-.056-.072C4.562.921 4.006 4.197 3.415 5.39c-.098.201-.184.304-.354.294-.506-.033-.142-1.113.033-1.49a.043.043 0 0 0-.024-.057.04.04 0 0 0-.045 0 11.797 11.797 0 0 0-2.972 6.416c0-.055-.024.196-.039.38 0 .074-.005.146-.014.219v.26a6.502 6.502 0 0 0 13.001.108.116.116 0 0 1-.014-.06Zm-6.521 3.02a3.015 3.015 0 1 1 .029-6.03 3.015 3.015 0 0 1-.03 6.03Z"/>
</svg>
