<svg xmlns="http://www.w3.org/2000/svg" width="51" height="21" fill="none" viewBox="0 0 51 21">
  <path fill="#fff" fill-rule="evenodd" d="M6.692 3.866c.94.08 1.88-.476 2.468-1.18.578-.723.96-1.695.862-2.686-.832.04-1.86.555-2.448 1.279-.539.624-1 1.635-.882 2.587Zm11.183 12.767V1.18h5.73c2.956 0 5.023 2.061 5.023 5.075 0 3.013-2.106 5.095-5.102 5.095h-3.28v5.283h-2.37ZM10.012 4.054c-.828-.048-1.584.252-2.194.495-.393.156-.726.288-.979.288-.284 0-.63-.139-1.019-.295-.51-.205-1.092-.44-1.703-.428-1.4.02-2.703.822-3.418 2.101C-.77 8.773.317 12.56 1.737 14.641c.696 1.03 1.528 2.16 2.625 2.121.482-.018.83-.167 1.189-.322.413-.177.843-.362 1.513-.362.648 0 1.059.18 1.453.352.375.165.735.322 1.27.312 1.136-.02 1.85-1.03 2.546-2.061a9.114 9.114 0 0 0 1.13-2.35l.006-.02a.263.263 0 0 0-.027-.013c-.25-.116-2.168-1.004-2.186-3.387-.019-2 1.52-3.012 1.762-3.172l.03-.02c-.98-1.466-2.507-1.625-3.036-1.665Zm22.944 12.698c1.488 0 2.87-.763 3.496-1.972h.049v1.853h2.194V8.941c0-2.23-1.763-3.668-4.476-3.668-2.516 0-4.377 1.458-4.446 3.46h2.135c.176-.952 1.048-1.576 2.243-1.576 1.449 0 2.262.684 2.262 1.943v.852l-2.957.179c-2.752.168-4.24 1.308-4.24 3.29 0 2.003 1.537 3.331 3.74 3.331Zm.636-1.833c-1.263 0-2.066-.615-2.066-1.557 0-.971.774-1.536 2.253-1.626l2.634-.168v.872c0 1.448-1.215 2.479-2.82 2.479Zm12.378 2.319c-.95 2.706-2.037 3.598-4.348 3.598-.176 0-.764-.02-.9-.06v-1.853c.146.02.509.04.695.04 1.047 0 1.635-.446 1.997-1.606l.216-.684-4.015-11.25h2.477l2.791 9.129h.05l2.79-9.13h2.41L45.97 17.238ZM20.245 3.202h2.732c2.057 0 3.232 1.11 3.232 3.063s-1.175 3.073-3.242 3.073h-2.722V3.202Z" clip-rule="evenodd"/>
</svg>
