<svg width="97" height="57" viewBox="0 0 97 57" fill="none" xmlns="http://www.w3.org/2000/svg">
<g id="Senac_logo 1" clip-path="url(#clip0_4430_766)">
<g id="layer1">
<g id="g3014">
<g id="Layer_x0020_1">
<path id="path3001" fill-rule="evenodd" clip-rule="evenodd" d="M52.1579 24.5852C57.5422 20.9403 61.9693 18.307 68.1738 16.1467C72.8144 14.531 78.4415 13.2632 83.3887 12.9812L89.2533 12.7196C89.2802 12.375 81.5294 10.0195 80.7474 9.8177C71.3613 7.39585 59.7733 7.33126 50.5357 10.0357C49.9143 11.2201 48.7224 12.742 47.97 14.0117C47.1068 15.4684 46.4932 16.8534 45.7653 18.3615C45.6335 18.6347 45.5942 18.8501 45.6224 19.0337C45.6929 19.4925 46.1845 19.7531 46.7064 20.2218C47.82 21.222 51.1116 24.249 52.1579 24.5852Z" fill="white"/>
<path id="path3003" fill-rule="evenodd" clip-rule="evenodd" d="M61.7433 5.13704C64.3961 5.09472 66.9735 5.15772 69.6057 5.49079C70.7544 5.63616 77.8487 6.39728 83.0096 8.55271C83.2745 8.32613 76.7295 4.8846 76.1829 4.62272C73.7377 3.45166 70.9566 2.41056 68.3536 1.65584C66.0574 0.990126 64.1604 0.580868 61.8519 0.127071C60.7154 -0.0963446 60.6746 -0.0769789 59.8129 0.611895C58.0015 2.06025 55.6303 3.96039 54.1764 5.74217C56.751 5.53369 59.1178 5.17894 61.7433 5.13704Z" fill="white"/>
<path id="path3005" fill-rule="evenodd" clip-rule="evenodd" d="M62.1749 48.4033C61.8152 48.1337 64.1041 37.8418 54.279 36.4006C51.5326 35.9976 48.3073 36.2832 45.9618 37.8592C44.0784 39.1247 42.7519 41.1098 42.2079 44.0821C42.0768 43.9986 41.7503 42.4031 41.6476 42.1381C39.8326 37.4523 35.2107 35.5187 30.3244 36.1297C25.7503 36.7017 21.9217 39.9125 21.2176 44.3797L20.935 46.3503C20.4621 45.9643 20.3707 45.4337 18.9061 44.5712C18.0633 44.0749 17.1452 43.6994 16.2209 43.3834C14.19 42.6889 12.0508 42.381 9.98605 41.8069C9.18772 41.585 7.92732 41.1991 7.46875 40.4603C6.88488 39.5196 7.30818 38.3342 8.21255 37.8255C10.2141 36.7 12.7344 37.519 14.823 37.9345L14.8105 33.0297C0.726795 30.7716 -0.726691 40.3026 2.30452 43.6932C5.33126 47.0788 12.7675 46.844 15.0091 48.6282C15.9531 49.3795 15.7879 50.8948 14.8345 51.6099C13.8858 52.3214 12.3034 52.4169 11.1607 52.3898C8.56736 52.3284 6.69699 51.5242 4.54493 50.1662C3.45326 49.4773 3.85909 49.1629 2.1248 50.9506L0 53.2163C0.235053 53.9249 4.36388 55.755 5.23071 56.0431C9.86861 57.5849 18.0461 57.6965 20.9155 53.0816C21.5329 52.0886 21.6289 51.362 21.896 50.2569C23.1878 52.0957 23.3437 53.2107 26.1701 54.7354C27.2078 55.2952 28.2206 55.7078 29.3796 55.9207C30.781 56.1781 32.1682 56.2257 33.5073 56.1571L33.4627 51.8271C33.1159 51.8525 31.8222 51.8176 31.1383 51.6866C30.4644 51.5575 29.9039 51.3361 29.3136 50.9866C28.1837 50.3174 27.5964 49.278 27.2893 48.0333L42.1512 48.052L42.2093 55.8932L48.4984 55.8843L48.501 45.2295C48.5013 44.3382 48.6837 43.6095 48.869 43.1562C50.4234 40.0398 54.2834 40.4665 55.3763 42.8647C55.833 43.867 55.8632 44.2919 55.8637 45.3526L55.8684 55.8246L62.0753 55.8326L62.1443 51.696L62.2655 52.0249C63.582 56.5013 70.9844 57.1427 74.5982 54.8533L76.0799 53.8627L76.1084 55.826C77.8852 55.8002 80.2639 55.865 82.1061 55.883L82.1527 48.0659C82.2074 48.0188 82.8997 51.8362 87.4637 54.5831C90.2241 56.2445 93.7947 57.0607 96.9999 56.8826V52.245C85.6507 52.2299 86.357 37.8998 96.9999 38.2747V33.6261C92.2671 33.5764 87.0989 34.936 84.0524 38.8386C82.8487 40.3806 82.7157 41.0537 82.0203 42.8379C81.57 41.5901 81.729 40.9616 80.8687 39.6546C80.2562 38.7241 79.552 38.0232 78.567 37.4847C75.9412 36.0016 73.8659 36.2654 70.8973 36.2888L70.892 40.84C72.2005 40.887 73.4015 40.8172 74.5474 41.5173C75.6545 42.1937 76.1234 43.1583 76.0546 44.2242C75.8504 44.3047 72.3805 43.9885 71.7845 43.9769C70.2643 43.9472 68.912 44.0924 67.3959 44.2841C64.8347 44.6081 63.1285 45.9263 62.1749 48.4033ZM71.258 47.6033C72.3359 47.4948 73.3854 47.5002 74.4659 47.5635C75.8543 47.6448 76.4598 47.3675 76.1288 49.0887C75.8027 50.7847 74.3591 51.8295 72.7483 52.1719C67.7161 53.2417 65.3632 48.1964 71.258 47.6033ZM30.9869 40.5498C35.4764 39.7925 37.0821 44.5013 36.1722 44.5909C35.6631 44.641 30.413 44.5796 29.3871 44.5796C27.0226 44.5795 27.0067 44.8049 27.3933 43.7001C27.9988 41.97 29.1601 40.8579 30.9869 40.5498Z" fill="white"/>
<path id="path3007" fill-rule="evenodd" clip-rule="evenodd" d="M47.1522 28.7673C47.9616 28.0485 48.7422 27.3444 49.5675 26.6422C50.3679 25.9612 51.4287 25.2708 52.1579 24.5847C51.1115 24.2484 47.8199 21.2215 46.7063 20.2213C46.1845 19.7525 45.6928 19.492 45.6224 19.0332C45.5942 18.8496 45.6334 18.6342 45.7653 18.361C46.4932 16.8529 47.1068 15.4678 47.97 14.0112C48.7223 12.7415 49.9143 11.2196 50.5356 10.0352C47.6721 10.5735 43.4722 12.4444 40.7022 13.5963C40.972 14.3203 43.1361 16.6867 43.7815 17.3389C44.7607 18.3286 44.9724 18.6477 45.3168 19.0699C43.697 23.278 42.6604 27.3878 42.6285 33.4101C42.7925 33.5229 44.4932 31.3718 44.8226 31.0536C45.6051 30.2977 46.336 29.4921 47.1522 28.7673Z" fill="white"/>
</g>
</g>
</g>
</g>
<defs>
<clipPath id="clip0_4430_766">
<rect width="97" height="57" fill="white"/>
</clipPath>
</defs>
</svg>
