<svg xmlns="http://www.w3.org/2000/svg" width="50" height="28" fill="none" viewBox="0 0 50 28">
  <g clip-path="url(#a)">
    <path fill="#fff" d="M0 0h.556v14.755H0V0Zm1.111 0h.556v14.755h-.556V0Zm3.337 0h.556v14.755h-.556V0Zm10.817 0h.555v14.755h-.555V0Zm3.616 0h.555v14.755h-.555V0Zm3.506 0h.556v14.755h-.556V0Zm.904 0h.556v14.755h-.555L23.29 0Zm.905 0h.556v14.755h-.556V0Zm1.017 0h.556v14.755h-.556V0Zm1.017 0h.555v14.755h-.555V0Zm2.827 0h.556v14.755h-.557V0Zm7.009 0h.556v14.755h-.556V0Zm7.311 0h.556v14.755h-.556V0Zm2 0h.556v14.755h-.556V0Zm1.446 0h.556v14.755h-.556V0Zm.89 0h.555v14.755h-.555V0ZM8.118 0h.555v14.755h-.555V0Zm-5.56 0h1v14.755h-1V0ZM9.16 0h1v14.755h-1V0Zm4.636 0h1v14.755h-1V0Zm2.374 0h1v14.755h-1V0Zm3.73 0h1.001v14.755h-1V0Zm10.637 0h1.556v14.755h-1.556V0Zm2.033 0h1.222v14.755h-1.224L32.571 0Zm2.145 0h1v14.755h-1V0Zm2.836 0h1.668v14.755h-1.668V0Zm3.267 0h1.668v14.755H40.82V0ZM5.56 0h2v14.755h-2V0Zm5.186 0h1.556v14.755h-1.556V0ZM.719 27.855V19.41h3.169c.53-.02 1.058.067 1.553.256.379.162.699.438.915.79.214.332.33.719.332 1.114 0 .361-.102.714-.294 1.02a2.099 2.099 0 0 1-.887.771c.466.12.88.389 1.18.766.276.368.42.819.41 1.279a2.45 2.45 0 0 1-.25 1.103 2.135 2.135 0 0 1-.621.787c-.278.2-.592.342-.925.419-.446.102-.904.15-1.362.141H.72Zm1.118-4.896h1.827c.356.014.713-.019 1.061-.098a1.18 1.18 0 0 0 .642-.42c.15-.216.226-.475.216-.737a1.36 1.36 0 0 0-.201-.74 1.02 1.02 0 0 0-.571-.439 4.815 4.815 0 0 0-1.285-.118H1.838v2.552Zm0 3.9H3.94c.254.007.508-.007.76-.04.229-.037.448-.117.646-.236.181-.117.328-.28.426-.472a1.47 1.47 0 0 0 .168-.708 1.404 1.404 0 0 0-.242-.826 1.276 1.276 0 0 0-.672-.49 4.155 4.155 0 0 0-1.235-.14H1.837v2.912Zm6.894-3.116A4.59 4.59 0 0 1 9.86 20.45a3.838 3.838 0 0 1 2.915-1.19c.74-.01 1.47.184 2.108.56a3.65 3.65 0 0 1 1.432 1.558c.337.707.505 1.483.492 2.267a4.976 4.976 0 0 1-.517 2.298 3.54 3.54 0 0 1-1.469 1.534 4.196 4.196 0 0 1-2.05.521 3.996 3.996 0 0 1-2.131-.575 3.707 3.707 0 0 1-1.424-1.573 4.766 4.766 0 0 1-.485-2.107Zm1.153.018a3.384 3.384 0 0 0 .825 2.405 2.703 2.703 0 0 0 2.06.88 2.698 2.698 0 0 0 2.07-.89 3.587 3.587 0 0 0 .815-2.517 4.328 4.328 0 0 0-.343-1.8 2.679 2.679 0 0 0-1.02-1.193 2.765 2.765 0 0 0-1.506-.424 2.858 2.858 0 0 0-2.042.816 3.642 3.642 0 0 0-.86 2.721v.002Zm8.755 4.095V19.41h1.117v7.448h4.16v.997h-5.277Zm7.067 0V19.41h6.107v.997h-4.99v2.587h4.673v.991h-4.672v2.874h5.185v.997h-6.303Zm10.432 0v-7.449h-2.783v-.997h6.694v.997h-2.794v7.448h-1.117Zm4.941-4.113a4.59 4.59 0 0 1 1.132-3.293 3.84 3.84 0 0 1 2.915-1.19c.74-.01 1.47.184 2.108.56a3.65 3.65 0 0 1 1.432 1.558 5.06 5.06 0 0 1 .492 2.267 4.977 4.977 0 0 1-.518 2.298 3.54 3.54 0 0 1-1.474 1.535 4.197 4.197 0 0 1-2.05.522 3.993 3.993 0 0 1-2.132-.576 3.705 3.705 0 0 1-1.42-1.574 4.768 4.768 0 0 1-.485-2.107Zm1.153.018a3.384 3.384 0 0 0 .826 2.405 2.702 2.702 0 0 0 2.06.88 2.696 2.696 0 0 0 2.076-.888 3.587 3.587 0 0 0 .816-2.518 4.325 4.325 0 0 0-.354-1.8 2.679 2.679 0 0 0-1.02-1.193 2.765 2.765 0 0 0-1.506-.423 2.856 2.856 0 0 0-2.042.815 3.641 3.641 0 0 0-.856 2.72v.002Z"/>
  </g>
  <defs>
    <clipPath id="a">
      <path fill="#fff" d="M0 0h49.159v28H0z"/>
    </clipPath>
  </defs>
</svg>
