<svg xmlns="http://www.w3.org/2000/svg" width="29" height="20" fill="none" viewBox="0 0 29 20">
  <path fill="#fff" fill-rule="evenodd" d="M2.06 15.517V9.475h3.12c1.277 0 2.356-.428 3.235-1.273l.211-.214a4.35 4.35 0 0 0-.21-6.09A4.45 4.45 0 0 0 5.178.603H.173v14.915H2.06Zm0-7.874V2.434h3.166c.68 0 1.325.262 1.806.737 1.02 1 1.043 2.665.059 3.7a2.45 2.45 0 0 1-1.865.772H2.06ZM17.43 6.11c-.81-.75-1.912-1.13-3.307-1.13-1.793 0-3.141.666-4.032 1.986l1.664 1.059c.61-.904 1.442-1.356 2.497-1.356.669 0 1.313.25 1.817.702a2.25 2.25 0 0 1 .774 1.7v.44c-.727-.404-1.641-.618-2.767-.618-1.313 0-2.368.31-3.153.94-.786.63-1.184 1.463-1.184 2.521a3.174 3.174 0 0 0 1.114 2.498c.738.666 1.676.999 2.778.999 1.301 0 2.333-.583 3.118-1.748h.082v1.415h1.806V9.225c0-1.32-.399-2.367-1.208-3.116Zm-5.123 7.529a1.55 1.55 0 0 1-.622-1.25c0-.558.258-1.022.762-1.39.516-.37 1.161-.56 1.923-.56 1.056-.011 1.876.226 2.463.702 0 .809-.317 1.51-.938 2.105a2.978 2.978 0 0 1-2.123.892 2.284 2.284 0 0 1-1.465-.5ZM22.693 20 29 5.312h-2.052L24.03 12.64h-.035l-2.99-7.327h-2.05l4.138 9.55-2.345 5.139h1.946Z" clip-rule="evenodd"/>
</svg>
