<svg xmlns="http://www.w3.org/2000/svg" width="70" height="48" fill="none" viewBox="0 0 70 48">
  <path fill="#fff" fill-rule="evenodd" d="M19.8 30.482h-3.111a.432.432 0 0 0-.427.365l-1.259 7.978a.26.26 0 0 0 .257.3h1.485a.432.432 0 0 0 .427-.365l.34-2.152a.432.432 0 0 1 .427-.366h.984c2.05 0 3.233-.991 3.542-2.957.139-.86.006-1.535-.397-2.008-.442-.52-1.227-.795-2.268-.795Zm.359 2.914c-.17 1.117-1.023 1.117-1.848 1.117h-.47l.33-2.085a.26.26 0 0 1 .256-.219h.215c.562 0 1.092 0 1.366.32.163.191.213.475.151.867Zm8.941-.035h-1.49a.26.26 0 0 0-.256.219l-.066.416-.104-.15c-.323-.469-1.042-.625-1.76-.625-1.646 0-3.052 1.247-3.326 2.996-.142.872.06 1.706.555 2.288.454.535 1.104.758 1.877.758 1.326 0 2.062-.853 2.062-.853l-.067.414c-.025.159.097.3.256.3h1.342a.432.432 0 0 0 .427-.365l.805-5.1a.258.258 0 0 0-.255-.298Zm-2.077 2.9c-.143.85-.819 1.422-1.68 1.422-.433 0-.779-.139-1-.402-.221-.26-.305-.633-.235-1.047a1.668 1.668 0 0 1 1.67-1.434c.423 0 .767.141.993.406.227.268.317.642.252 1.054Zm8.515-2.9h1.497a.26.26 0 0 1 .213.407l-4.98 7.187a.432.432 0 0 1-.355.186h-1.495a.26.26 0 0 1-.212-.41l1.55-2.188-1.648-4.84a.26.26 0 0 1 .246-.343h1.47c.192 0 .36.126.416.309l.875 2.923 2.065-3.042a.433.433 0 0 1 .358-.19Zm16.232 5.465 1.278-8.124a.26.26 0 0 1 .255-.22h1.438a.26.26 0 0 1 .256.3l-1.26 7.978a.432.432 0 0 1-.427.365h-1.284a.259.259 0 0 1-.255-.3Zm-9.778-8.343H38.88a.432.432 0 0 0-.426.365l-1.259 7.978a.26.26 0 0 0 .256.3h1.597a.302.302 0 0 0 .298-.256l.357-2.262a.432.432 0 0 1 .427-.365h.984c2.05 0 3.233-.992 3.542-2.957.14-.86.006-1.536-.397-2.009-.442-.52-1.226-.794-2.267-.794Zm.36 2.914c-.17 1.116-1.024 1.116-1.849 1.116h-.469l.33-2.085a.258.258 0 0 1 .256-.219h.215c.561 0 1.092 0 1.365.32.164.192.213.475.151.868Zm8.94-.036h-1.49a.258.258 0 0 0-.255.219l-.066.416-.105-.15c-.322-.469-1.04-.625-1.759-.625-1.646 0-3.052 1.247-3.326 2.996-.142.873.06 1.707.555 2.289.455.535 1.103.758 1.876.758 1.327 0 2.062-.853 2.062-.853l-.066.414a.26.26 0 0 0 .257.3h1.341a.432.432 0 0 0 .427-.365l.806-5.1a.26.26 0 0 0-.258-.299Zm-2.077 2.9c-.143.85-.82 1.422-1.681 1.422-.432 0-.779-.139-1-.401-.22-.261-.303-.633-.234-1.047a1.668 1.668 0 0 1 1.67-1.434c.422 0 .766.14.993.406.228.268.318.642.252 1.054Z" clip-rule="evenodd"/>
  <path fill="#fff" d="m31.314 27.628.383-2.43-.852-.02h-4.069l2.828-17.927a.231.231 0 0 1 .23-.196h6.86c2.277 0 3.848.474 4.669 1.409.385.439.63.897.748 1.402.124.53.127 1.162.005 1.934l-.009.056v.494l.385.218c.324.172.581.369.779.594.33.375.542.852.632 1.418.093.581.062 1.273-.09 2.056-.176.901-.46 1.686-.843 2.328a4.794 4.794 0 0 1-1.334 1.463 5.418 5.418 0 0 1-1.798.81c-.663.173-1.418.26-2.247.26h-.534c-.381 0-.752.138-1.043.384a1.616 1.616 0 0 0-.544.972l-.04.218-.676 4.282-.031.158c-.008.05-.022.074-.042.091a.115.115 0 0 1-.07.026h-3.297Z"/>
  <path fill="#fff" d="M41.91 11.538a7.115 7.115 0 0 0-.88-.196 11.186 11.186 0 0 0-1.775-.13H33.88a.854.854 0 0 0-.848.726l-1.144 7.245-.033.212a.978.978 0 0 1 .966-.828h2.013c3.953 0 7.048-1.606 7.953-6.25a9.46 9.46 0 0 0 .07-.402 4.825 4.825 0 0 0-.946-.377Z"/>
  <path fill="#fff" d="M33.031 11.937a.855.855 0 0 1 .848-.724h5.377c.637 0 1.231.041 1.774.129a7.158 7.158 0 0 1 1.083.258c.267.089.515.193.744.314.27-1.717-.002-2.885-.93-3.944-1.023-1.165-2.87-1.663-5.233-1.663h-6.86a.98.98 0 0 0-.97.828l-2.857 18.112a.59.59 0 0 0 .582.682h4.235l1.063-6.747 1.144-7.245Z"/>
</svg>
