<svg xmlns="http://www.w3.org/2000/svg" width="70" height="48" fill="none" viewBox="0 0 70 48">
  <path stroke="#fff" stroke-linecap="round" stroke-linejoin="round" stroke-width=".751" d="M29.89 31.803v-10.32a3.438 3.438 0 0 1 3.439-3.438h3.044a3.434 3.434 0 0 1 3.426 3.433v2.197a3.438 3.438 0 0 1-3.439 3.438h-4.305m8.598-9.07h1.319a1.411 1.411 0 0 1 1.411 1.411v7.711"/>
  <path fill="#fff" d="m43.098 16.849-.598-.6a.38.38 0 0 1 0-.539l.598-.598a.377.377 0 0 1 .415-.083.38.38 0 0 1 .124.083l.6.598a.38.38 0 0 1 0 .54l-.6.599a.382.382 0 0 1-.539 0Z"/>
  <path stroke="#fff" stroke-linecap="round" stroke-linejoin="round" stroke-width=".751" d="M45.922 18.037h1.31c.675 0 1.322.268 1.799.745l3.066 3.065a1.016 1.016 0 0 0 1.437 0l3.058-3.054a2.54 2.54 0 0 1 1.798-.745h1.065m-13.533 9.048h1.31c.675 0 1.322-.268 1.799-.745l3.066-3.064a1.013 1.013 0 0 1 1.437 0l3.058 3.053a2.541 2.541 0 0 0 1.798.744h1.065"/>
  <path fill="#fff" d="M22.076 29.055a2.445 2.445 0 0 1-1.742-.722l-2.515-2.509a.477.477 0 0 0-.66 0l-2.525 2.524a2.446 2.446 0 0 1-1.742.72h-.495l3.184 3.187a2.549 2.549 0 0 0 3.603 0l3.194-3.195-.302-.005Zm-9.184-8.897a2.452 2.452 0 0 1 1.742.721l2.524 2.525a.468.468 0 0 0 .66 0l2.516-2.516a2.45 2.45 0 0 1 1.742-.72h.304l-3.194-3.195a2.546 2.546 0 0 0-3.602 0l-3.185 3.185h.493Z"/>
  <path fill="#fff" d="m25.021 22.809-1.928-1.928a.383.383 0 0 1-.136.028h-.878a1.732 1.732 0 0 0-1.218.507l-2.519 2.51a1.202 1.202 0 0 1-.853.353c-.32 0-.628-.126-.854-.352l-2.525-2.524a1.732 1.732 0 0 0-1.217-.508h-1.079a.364.364 0 0 1-.13-.026l-1.937 1.938a2.547 2.547 0 0 0 0 3.603l1.938 1.938a.366.366 0 0 1 .13-.027h1.078a1.735 1.735 0 0 0 1.217-.507l2.525-2.524a1.237 1.237 0 0 1 1.707 0l2.515 2.515c.324.323.761.505 1.218.507h.878c.047 0 .093.01.137.029l1.927-1.928a2.549 2.549 0 0 0 0-3.603m7.494 8.116a2.25 2.25 0 0 0-.473.072v.629c.119.042.243.063.369.062.315 0 .464-.107.464-.385 0-.26-.123-.378-.36-.378Zm-.58 1.168V30.85h.088l.009.053c.16-.043.326-.069.492-.079a.489.489 0 0 1 .323.094.476.476 0 0 1 .142.385.433.433 0 0 1-.203.401.79.79 0 0 1-.366.081c-.129 0-.256-.02-.379-.058v.366h-.105Zm1.845-1.173c-.315 0-.455.102-.455.377s.139.39.455.39c.317 0 .455-.102.455-.376s-.14-.39-.455-.39Zm.406.766a.688.688 0 0 1-.406.102.697.697 0 0 1-.406-.102.434.434 0 0 1-.162-.382.442.442 0 0 1 .162-.384.69.69 0 0 1 .406-.101.692.692 0 0 1 .406.101.44.44 0 0 1 .162.382.438.438 0 0 1-.162.384Zm1.493.073-.352-.754h-.007l-.346.755h-.09l-.375-.913h.117l.312.764h.007l.339-.764h.101l.348.764h.007l.305-.764h.113l-.374.913h-.105Zm1.15-.84c-.292 0-.39.13-.406.317h.818c-.008-.207-.115-.317-.406-.317h-.006Zm.006.865a.544.544 0 0 1-.378-.101.471.471 0 0 1-.153-.382.475.475 0 0 1 .17-.39.609.609 0 0 1 .355-.09.635.635 0 0 1 .364.088c.132.088.157.243.157.42h-.934c0 .187.065.353.418.353.158-.004.316-.021.47-.053v.096a2.734 2.734 0 0 1-.478.056m.828-.022v-.912h.088l.01.053c.145-.047.297-.074.45-.079h.014v.102h-.025c-.146.003-.29.027-.43.072v.763l-.106.002Zm1.18-.84c-.292 0-.392.13-.406.318h.819c-.01-.208-.116-.317-.406-.317h-.007Zm.007.866a.548.548 0 0 1-.379-.101.47.47 0 0 1-.142-.379.474.474 0 0 1 .17-.39.608.608 0 0 1 .355-.09.633.633 0 0 1 .363.088c.132.088.157.243.157.42h-.933c0 .186.065.353.418.353.158-.004.316-.022.47-.053v.095a2.766 2.766 0 0 1-.48.057Zm1.678-.804a1.091 1.091 0 0 0-.367-.06c-.316 0-.466.106-.466.383s.123.378.361.378c.16-.007.318-.03.472-.07v-.63Zm.02.777-.009-.054c-.16.043-.326.07-.492.08a.476.476 0 0 1-.322-.095.473.473 0 0 1-.144-.385.43.43 0 0 1 .203-.399.771.771 0 0 1 .369-.082c.127.002.254.021.376.058v-.417h.107v1.294h-.088Zm1.65-.835a2.25 2.25 0 0 0-.473.073v.627c.118.043.243.064.369.063.315 0 .464-.106.464-.384 0-.26-.123-.379-.36-.379Zm.272.78a.79.79 0 0 1-.366.08 1.306 1.306 0 0 1-.406-.068v.043h-.073v-1.294h.101v.431c.158-.04.32-.065.482-.075a.49.49 0 0 1 .323.093.477.477 0 0 1 .142.386.433.433 0 0 1-.203.4m.337.415v-.102c.052 0 .101.01.135.01a.278.278 0 0 0 .285-.188l.034-.072-.475-.913h.122l.406.785h.007l.388-.785h.12l-.507 1.021c-.094.186-.195.247-.38.247a.981.981 0 0 1-.135-.003Zm2.492-.875h-.354v.32h.355c.243 0 .336-.027.336-.161s-.127-.158-.337-.158Zm-.065-.517h-.29v.325h.29c.241 0 .337-.028.337-.164s-.121-.16-.337-.16Zm.548.95c-.13.083-.288.087-.574.087h-.538v-1.235h.525c.248 0 .399 0 .525.08a.262.262 0 0 1 .127.245.27.27 0 0 1-.195.274v.007c.158.036.26.117.26.292a.268.268 0 0 1-.13.25Zm1.209-.295a3.729 3.729 0 0 0-.328-.014c-.185 0-.25.037-.25.123 0 .085.053.121.196.121a1.85 1.85 0 0 0 .382-.053v-.177Zm.054.383-.007-.055a2.16 2.16 0 0 1-.494.08.47.47 0 0 1-.275-.067.257.257 0 0 1-.102-.22.257.257 0 0 1 .153-.247.826.826 0 0 1 .342-.05c.096 0 .224.005.33.012v-.012c0-.143-.093-.19-.35-.19-.101 0-.22.006-.335.017v-.185c.128-.01.272-.017.39-.017a.772.772 0 0 1 .425.084c.101.074.124.177.124.313v.539l-.201-.002Zm1.388-.001v-.507c0-.165-.084-.225-.236-.225a1.69 1.69 0 0 0-.371.058v.67h-.25v-.913h.202l.01.057c.158-.046.32-.074.485-.082a.453.453 0 0 1 .313.093.354.354 0 0 1 .101.285v.557l-.253.007Zm.969.025a.507.507 0 0 1-.34-.097.467.467 0 0 1-.143-.385.441.441 0 0 1 .185-.389c.122-.068.26-.1.4-.09.102 0 .208.007.32.017v.195a3.582 3.582 0 0 0-.29-.016c-.24 0-.355.076-.355.285 0 .209.086.28.284.28a2.13 2.13 0 0 0 .382-.046v.188a2.324 2.324 0 0 1-.443.058Zm1.196-.77c-.242 0-.348.076-.348.284 0 .207.101.295.348.295.246 0 .344-.074.344-.281 0-.207-.102-.298-.344-.298Zm.436.674a.762.762 0 0 1-.436.096.775.775 0 0 1-.438-.096.424.424 0 0 1-.172-.383.429.429 0 0 1 .172-.386.775.775 0 0 1 .438-.095.776.776 0 0 1 .436.095.425.425 0 0 1 .17.384.43.43 0 0 1-.17.385Zm1.637.097a.68.68 0 0 1-.444-.13c-.148-.121-.192-.31-.192-.515a.608.608 0 0 1 .25-.524.95.95 0 0 1 .523-.117c.137 0 .277.01.43.021v.223a5.363 5.363 0 0 0-.42-.02c-.351 0-.5.133-.5.417s.138.42.397.42c.186-.006.37-.03.55-.074v.222a3.017 3.017 0 0 1-.594.078m1.341-.801c-.211 0-.292.075-.304.214h.608c-.007-.148-.093-.214-.304-.214Zm-.038.799a.585.585 0 0 1-.385-.102.467.467 0 0 1-.146-.38.46.46 0 0 1 .17-.384.68.68 0 0 1 .399-.095.71.71 0 0 1 .395.091c.146.102.158.262.16.45h-.866c.007.139.08.228.336.228a3.3 3.3 0 0 0 .485-.047v.179c-.18.034-.364.054-.548.06Zm1.723-.025v-.507c0-.165-.084-.225-.235-.225a1.69 1.69 0 0 0-.371.058v.67h-.255v-.913h.208l.009.057c.158-.046.321-.074.486-.082a.453.453 0 0 1 .312.093.354.354 0 0 1 .102.285v.557l-.256.007Zm.976.026a.33.33 0 0 1-.295-.13.468.468 0 0 1-.067-.276v-.341h-.184v-.189h.184l.027-.276h.226v.276h.358v.189h-.358v.292a.429.429 0 0 0 .025.174.16.16 0 0 0 .165.084c.061-.001.122-.007.182-.018v.182c-.086.02-.174.03-.263.033Zm.497-.026v-.912h.203l.01.056c.145-.049.297-.076.45-.082h.032v.217h-.088c-.12 0-.24.016-.357.047v.673l-.25.002Zm1.623-.382a3.84 3.84 0 0 0-.328-.014c-.186 0-.25.037-.25.123 0 .085.054.121.196.121a1.83 1.83 0 0 0 .383-.053v-.177Zm.054.383-.01-.052a2.175 2.175 0 0 1-.494.08.475.475 0 0 1-.276-.067.258.258 0 0 1-.101-.22.255.255 0 0 1 .161-.25.824.824 0 0 1 .34-.048c.095 0 .224.005.33.012v-.014c0-.143-.094-.19-.35-.19-.1 0-.22.006-.335.017v-.184c.129-.01.273-.018.392-.018a.768.768 0 0 1 .423.084c.101.074.124.177.124.313v.539l-.203-.002Zm.527-1.296h.255v1.294h-.255v-1.294Z"/>
</svg>
