<svg xmlns="http://www.w3.org/2000/svg" width="59" height="15" fill="none" viewBox="0 0 59 15">
  <path fill="#fff" fill-rule="evenodd" d="M6.55 0 0 14.493h7.84l.972-2.31h2.222l.972 2.31h8.63V12.73l.77 1.763h4.464l.769-1.8v1.8h17.948l2.182-2.25 2.044 2.25 9.219.02-6.57-7.226L58.032 0h-9.076l-2.125 2.21L44.852 0H25.327L23.65 3.74 21.934 0H14.11v1.704L13.24 0H6.55Zm26.802 2.058h10.306l3.153 3.405 3.254-3.405h3.152l-4.79 5.227 4.79 5.167h-3.295L46.77 9.007l-3.271 3.445H33.352V2.058Zm2.545 4.052v-1.9h6.431l2.806 3.036-2.93 3.053h-6.307V8.226h5.623V6.11h-5.623ZM8.067 2.058h3.821l4.344 9.828V2.058h4.187l3.355 7.047 3.093-7.047h4.166v10.4h-2.535l-.02-8.15-3.696 8.15h-2.268l-3.716-8.15v8.15h-5.214l-.989-2.331H7.254l-.987 2.33H3.474l4.592-10.4Zm.099 5.913 1.76-4.153 1.757 4.153H8.166Z" clip-rule="evenodd"/>
</svg>
