<svg xmlns="http://www.w3.org/2000/svg" width="70" height="48" fill="none" viewBox="0 0 70 48">
  <path fill="#fff" fill-rule="evenodd" d="M33.06 31.517v-6.042h3.119c1.277 0 2.356-.428 3.235-1.273l.211-.214a4.35 4.35 0 0 0-.21-6.09 4.45 4.45 0 0 0-3.236-1.296h-5.006v14.915h1.887Zm0-7.874v-5.209h3.166c.68 0 1.325.262 1.806.737 1.02 1 1.043 2.665.059 3.7a2.45 2.45 0 0 1-1.865.772H33.06Zm15.37-1.534c-.81-.75-1.911-1.13-3.307-1.13-1.793 0-3.141.666-4.032 1.986l1.664 1.059c.61-.904 1.442-1.356 2.497-1.356.669 0 1.313.25 1.817.702a2.25 2.25 0 0 1 .774 1.7v.44c-.727-.404-1.641-.618-2.767-.618-1.313 0-2.368.31-3.153.94-.785.63-1.184 1.463-1.184 2.521a3.174 3.174 0 0 0 1.114 2.498c.738.666 1.676.999 2.778.999 1.301 0 2.333-.583 3.118-1.748h.082v1.415h1.806v-6.292c0-1.32-.399-2.367-1.208-3.116Zm-5.123 7.529a1.55 1.55 0 0 1-.622-1.25c0-.558.258-1.022.762-1.39.516-.37 1.161-.56 1.923-.56 1.056-.011 1.876.226 2.463.702 0 .809-.317 1.51-.938 2.105a2.978 2.978 0 0 1-2.123.892 2.284 2.284 0 0 1-1.465-.5ZM53.693 36 60 21.312h-2.05l-2.92 7.327h-.035l-2.99-7.327h-2.05l4.138 9.55-2.345 5.139h1.946Z" clip-rule="evenodd"/>
  <path fill="#fff" d="M26.544 24.166c0-.583-.047-1.165-.14-1.736h-7.96v3.294h4.56a3.97 3.97 0 0 1-1.688 2.605v2.14h2.72c1.594-1.486 2.508-3.686 2.508-6.303Z"/>
  <path fill="#fff" d="M18.444 32.54c2.274 0 4.197-.762 5.592-2.07l-2.72-2.141c-.762.523-1.735.82-2.872.82-2.204 0-4.068-1.51-4.736-3.532h-2.802v2.212c1.43 2.89 4.35 4.71 7.538 4.71Z"/>
  <path fill="#fff" d="M13.708 25.618a5.237 5.237 0 0 1 0-3.283v-2.2h-2.802a8.6 8.6 0 0 0 0 7.683l2.802-2.2Z"/>
  <path fill="#fff" d="M18.444 18.802a4.507 4.507 0 0 1 3.236 1.285l2.414-2.45a8.083 8.083 0 0 0-5.65-2.224c-3.189 0-6.108 1.831-7.538 4.721l2.802 2.213c.668-2.034 2.532-3.545 4.736-3.545Z"/>
</svg>
