<svg width="64" height="64" viewBox="0 0 64 64" fill="none" xmlns="http://www.w3.org/2000/svg">
<g clip-path="url(#clip0_4159_674)">
<path d="M49.85 48.9177C48.6172 48.9222 47.3958 48.6823 46.2563 48.212C45.1167 47.7417 44.0817 47.0502 43.211 46.1775L33.6211 36.5815C33.2819 36.2572 32.8307 36.0762 32.3614 36.0762C31.8921 36.0762 31.4408 36.2572 31.1016 36.5815L21.4793 46.2038C20.6092 47.0778 19.5744 47.7707 18.4349 48.2424C17.2954 48.7141 16.0737 48.9554 14.8404 48.9522H12.9629L25.1148 61.1041C26.9373 62.9227 29.4069 63.9441 31.9816 63.9441C34.5563 63.9441 37.0259 62.9227 38.8485 61.1041L51.0247 48.9258L49.85 48.9177Z" fill="white"/>
<path d="M14.8424 15.0064C16.0757 15.0031 17.2974 15.2443 18.437 15.716C19.5765 16.1878 20.6113 16.8807 21.4814 17.7547L31.1037 27.379C31.4381 27.7125 31.8911 27.8997 32.3634 27.8997C32.8357 27.8997 33.2887 27.7125 33.6231 27.379L43.211 17.7912C44.0804 16.916 45.115 16.2223 46.2546 15.7501C47.3943 15.278 48.6164 15.0369 49.85 15.0408H51.0044L38.8282 2.86462C37.9266 1.96263 36.856 1.24713 35.6778 0.758958C34.4996 0.270791 33.2367 0.0195313 31.9614 0.0195312C30.686 0.0195313 29.4232 0.270791 28.2449 0.758958C27.0667 1.24713 25.9962 1.96263 25.0945 2.86462L12.9629 15.0064H14.8424Z" fill="white"/>
<path d="M61.0762 25.113L53.7182 17.7551C53.5522 17.8229 53.3749 17.8586 53.1956 17.8604H49.8498C48.1088 17.8647 46.4398 18.5562 45.2058 19.7844L35.6179 29.3662C34.7545 30.2281 33.5843 30.7122 32.3643 30.7122C31.1442 30.7122 29.9741 30.2281 29.1106 29.3662L19.4863 19.748C18.2526 18.519 16.5836 17.8268 14.8422 17.8219H10.7349C10.5656 17.8181 10.3983 17.7845 10.2407 17.7227L2.83615 25.113C1.01749 26.9356 -0.00390625 29.4051 -0.00390625 31.9799C-0.00390625 34.5546 1.01749 37.0242 2.83615 38.8467L10.2245 46.2351C10.3818 46.1721 10.5493 46.1385 10.7187 46.1358H14.8422C16.5835 46.1307 18.2525 45.4385 19.4863 44.2097L29.1086 34.5875C30.8483 32.8497 33.8802 32.8497 35.6179 34.5875L45.2058 44.1733C46.4398 45.4015 48.1088 46.093 49.8498 46.0973H53.1956C53.375 46.0986 53.5524 46.1343 53.7182 46.2027L61.0762 38.8447C61.9781 37.943 62.6936 36.8725 63.1818 35.6943C63.67 34.5161 63.9212 33.2532 63.9212 31.9778C63.9212 30.7025 63.67 29.4396 63.1818 28.2614C62.6936 27.0832 61.9781 26.0127 61.0762 25.111" fill="white"/>
</g>
<defs>
<clipPath id="clip0_4159_674">
<rect width="64" height="64" fill="white"/>
</clipPath>
</defs>
</svg>
