<svg width="53" height="64" viewBox="0 0 53 64" fill="none" xmlns="http://www.w3.org/2000/svg">
<g clip-path="url(#clip0_4211_698)">
<path d="M41.6745 38.2284C41.6745 41.6205 38.961 44.3594 35.622 44.3594C35.3141 44.3399 35.0158 44.3204 34.7367 44.2912C30.3489 43.8818 29.6946 42.5172 26.5 42.5172C23.3342 42.5172 22.6799 43.8721 18.3787 44.2814C18.3787 44.2814 18.3787 44.2814 18.3691 44.2814C18.1574 44.3204 17.9938 44.3204 17.9168 44.3204C17.6763 44.3204 17.4838 44.3497 17.455 44.3497C14.1064 44.3497 11.4025 41.601 11.4025 38.2187C11.4025 35.2848 13.4328 32.8383 16.1463 32.2339C16.7141 32.0682 17.888 31.6394 18.9657 30.5574C19.9857 29.534 20.409 28.4228 20.5919 27.8574C21.0922 25.2257 23.2669 23.1398 26.0381 22.9059C29.1462 22.6427 31.9078 24.8163 32.4851 27.8574C32.6679 28.4228 33.0913 29.534 34.1113 30.5574C35.1698 31.6199 36.3052 32.0487 36.8825 32.2242C39.6249 32.809 41.6841 35.2751 41.6841 38.2284H41.6745Z" fill="#FFF8E1"/>
<path d="M25.0085 15.0594C24.5948 17.8568 22.7088 21.6972 20.2647 21.6485C17.8495 21.5998 15.6267 17.7496 15.925 14.4453C16.2907 10.4587 20.3706 6.97898 22.7377 7.788C24.8065 8.49954 25.3934 12.4179 25.0085 15.0594Z" fill="#FFF8E1"/>
<path d="M37.1231 15.0594C37.152 18.237 34.7271 21.746 32.3793 21.6485C29.8775 21.5413 28.2609 17.3402 28.0396 14.4453C27.8664 12.2035 28.3571 8.44106 30.3105 7.788C32.6679 6.99848 37.0846 10.7999 37.1231 15.0594Z" fill="#FFF8E1"/>
<path d="M16.1271 27.8574C15.4439 29.4755 13.4232 30.8303 11.3833 30.5867C8.61202 30.265 7.45734 27.2044 7.28413 26.717C6.12945 23.4712 7.70752 19.2702 9.77633 18.8023C12.6053 18.159 17.6859 24.134 16.1175 27.8574H16.1271Z" fill="#FFF8E1"/>
<path d="M36.8825 27.8574C37.5753 29.4755 39.596 30.8206 41.6456 30.5672C44.3784 30.226 45.5138 27.2531 45.7062 26.717C46.8609 23.4712 45.2829 19.2702 43.2141 18.8023C40.3947 18.159 35.3141 24.1535 36.8825 27.8574Z" fill="#FFF8E1"/>
<path d="M53 26.8437C53 36.4252 47.3613 45.9482 38.961 50.5391L39.9136 48.2486L37.508 47.8489C44.9653 43.7648 49.969 35.3238 49.969 26.834C49.969 13.724 39.4421 3.06062 26.5 3.06062C12.6053 3.07036 3.14651 15.3713 3.03105 26.8632C2.94444 35.2166 7.91921 43.6381 15.4247 47.8099L13.0191 48.2096L13.9717 50.4904C9.92066 48.2388 6.44699 44.876 3.94517 40.7627C1.30864 36.4545 -0.0481114 31.6394 4.16185e-07 26.8242C0.067357 20.1962 2.80973 13.4804 7.53431 8.41182C12.5764 2.99238 19.3121 0 26.5 0C41.1164 0 53 12.0378 53 26.8437Z" fill="#8BC34A"/>
<path d="M0.80828 62.1968C0.548477 62.1968 0.356029 62.1578 0.240561 62.0798C0.125092 62.0018 0.0577359 61.8946 0.0288688 61.7679C1.7006e-06 61.6412 -0.00962067 61.5047 -0.00962067 61.3683V55.4712C-0.00962067 55.3348 1.7006e-06 55.1983 0.0288688 55.0813C0.0577359 54.9546 0.125092 54.8571 0.240561 54.7694C0.356029 54.6914 0.538854 54.6525 0.80828 54.6525H2.99256C3.28123 54.6525 3.57952 54.7109 3.88744 54.8182C4.19535 54.9254 4.4744 55.0911 4.73421 55.325C4.99401 55.5589 5.2057 55.8319 5.35966 56.1633C5.51362 56.4947 5.60022 56.8846 5.60022 57.3329C5.60022 57.7813 5.52324 58.1614 5.35966 58.4928C5.19608 58.8242 4.99401 59.0972 4.73421 59.3214C4.4744 59.5455 4.19535 59.7112 3.88744 59.8185C3.57952 59.9257 3.28123 59.9842 2.98294 59.9842H1.61656V61.3975C1.61656 61.534 1.60694 61.6704 1.57807 61.7874C1.5492 61.9141 1.48185 62.0116 1.36638 62.0993C1.25091 62.1773 1.06808 62.2163 0.798658 62.2163L0.80828 62.1968ZM1.62618 58.3174H3.00218C3.15614 58.3174 3.3101 58.2784 3.46405 58.2102C3.61801 58.1419 3.7431 58.0347 3.84895 57.8788C3.95479 57.7228 4.00291 57.5376 4.00291 57.2939C4.00291 57.0892 3.95479 56.9138 3.86819 56.7676C3.78159 56.6116 3.6565 56.4947 3.51217 56.4069C3.35821 56.3192 3.18501 56.2802 2.99256 56.2802H1.62618V58.3076V58.3174Z" fill="#FFF8E1"/>
<path d="M7.21678 62.1968C6.95697 62.1968 6.77415 62.1578 6.65868 62.0798C6.54321 62.0018 6.47586 61.9044 6.44699 61.7679C6.41812 61.6412 6.4085 61.5047 6.4085 61.3683V55.4615C6.4085 55.1496 6.46623 54.9351 6.59132 54.8182C6.71641 54.7012 6.92811 54.6427 7.24565 54.6427H11.2774C11.4218 54.6427 11.5468 54.6524 11.6719 54.6817C11.797 54.7109 11.8932 54.7792 11.9702 54.8961C12.0472 55.0131 12.0857 55.208 12.0857 55.481C12.0857 55.7441 12.0472 55.9293 11.9702 56.0463C11.8932 56.1633 11.7874 56.2315 11.6623 56.2607C11.5372 56.29 11.4025 56.2997 11.2582 56.2997H8.02506V57.6936H10.219C10.3633 57.6936 10.4884 57.7033 10.5942 57.7228C10.7001 57.7423 10.7867 57.8105 10.854 57.908C10.9214 58.0055 10.9503 58.1809 10.9503 58.4149C10.9503 58.639 10.9214 58.8047 10.854 58.9022C10.7867 58.9997 10.7001 59.0679 10.5846 59.0874C10.4691 59.1069 10.3344 59.1167 10.1997 59.1167H8.02506V60.5592H11.2678C11.4121 60.5592 11.5372 60.569 11.6623 60.5982C11.7874 60.6275 11.8836 60.6957 11.9606 60.8127C12.0376 60.9199 12.0761 61.1148 12.0761 61.3878C12.0761 61.6509 12.0376 61.8361 11.9606 61.9531C11.8836 62.0701 11.7778 62.1383 11.6527 62.1675C11.5276 62.1968 11.3929 62.2065 11.2485 62.2065H7.19753L7.21678 62.1968Z" fill="#FFF8E1"/>
<path d="M18.3499 54.633C18.4749 54.633 18.5808 54.6427 18.6866 54.6622C18.7925 54.6817 18.8695 54.7499 18.9368 54.8474C19.0042 54.9449 19.033 55.1106 19.033 55.3445C19.033 55.5784 19.0042 55.7344 18.9368 55.8319C18.8695 55.9293 18.7829 55.9976 18.677 56.0171C18.5712 56.0365 18.4557 56.0463 18.3402 56.0463H16.6275V61.3878C16.6275 61.5242 16.6178 61.6509 16.589 61.7776C16.5601 61.9044 16.4927 62.0018 16.3869 62.0701C16.281 62.148 16.0886 62.187 15.8192 62.187C15.569 62.187 15.3862 62.148 15.2803 62.0701C15.1745 61.9921 15.0975 61.8946 15.0686 61.7679C15.0398 61.6412 15.0301 61.5145 15.0301 61.378V56.0463H13.3077C13.1923 56.0463 13.0864 56.0365 12.9806 56.0073C12.8747 55.9781 12.7881 55.9196 12.7208 55.8221C12.6534 55.7246 12.6149 55.5589 12.6149 55.3348C12.6149 55.1106 12.6438 54.9449 12.7208 54.8474C12.7881 54.7499 12.8747 54.6817 12.9806 54.6622C13.0864 54.6427 13.2019 54.633 13.3077 54.633H18.3595H18.3499Z" fill="#FFF8E1"/>
<path d="M20.6785 62.1968C20.4187 62.1968 20.2358 62.1578 20.1204 62.0798C20.0049 62.0018 19.9279 61.9044 19.9087 61.7679C19.8894 61.6314 19.8702 61.5047 19.8702 61.3683V55.4615C19.8702 55.325 19.8798 55.1885 19.9087 55.0716C19.9375 54.9449 20.0049 54.8474 20.1204 54.7597C20.2358 54.6817 20.4187 54.6427 20.6881 54.6427C20.9575 54.6427 21.15 54.6817 21.2558 54.7597C21.3617 54.8376 21.429 54.9449 21.4579 55.0716C21.4867 55.1983 21.4964 55.3348 21.4964 55.481V60.7737H24.4119C24.537 60.7737 24.6429 60.7834 24.7487 60.8029C24.8546 60.8224 24.9412 60.8809 25.0085 60.9881C25.0759 61.0856 25.1144 61.2513 25.1144 61.4852C25.1144 61.7192 25.0759 61.8751 25.0085 61.9726C24.9412 62.0798 24.8546 62.1383 24.7487 62.1578C24.6429 62.1773 24.537 62.187 24.4119 62.187H20.6785V62.1968Z" fill="#8BC34A"/>
<path d="M32.6294 61.0466C32.7161 61.2221 32.7642 61.378 32.7642 61.5047C32.7642 61.6314 32.7353 61.7387 32.6487 61.8361C32.5717 61.9336 32.437 62.0311 32.2446 62.1188C31.9559 62.265 31.7442 62.304 31.5806 62.2455C31.4267 62.187 31.2823 62.0116 31.1476 61.7289L29.0596 57.3037L26.9811 61.7289C26.8368 62.0116 26.6924 62.1773 26.5385 62.2358C26.3845 62.2942 26.1632 62.2455 25.8842 62.109C25.7013 62.0213 25.5666 61.9336 25.48 61.8361C25.3934 61.7387 25.3549 61.6217 25.3646 61.495C25.3742 61.3585 25.4223 61.2026 25.5185 61.0271L28.3186 55.1203C28.386 54.9741 28.4918 54.8571 28.6362 54.7792C28.7709 54.6914 28.9152 54.6525 29.0692 54.6525C29.175 54.6525 29.2712 54.6719 29.3675 54.7109C29.4637 54.7499 29.5407 54.8084 29.6176 54.8766C29.6946 54.9449 29.7524 55.0326 29.8005 55.1398L32.6102 61.0563L32.6294 61.0466ZM27.2794 60.4325L27.9434 59.0387H30.2142L30.8782 60.4325H27.289H27.2794Z" fill="#8BC34A"/>
<path d="M36.9499 62.2845C36.642 62.2845 36.3052 62.2358 35.9588 62.1383C35.6124 62.0408 35.266 61.8946 34.9292 61.6802C34.5924 61.4755 34.2845 61.2221 34.0151 60.9101C33.7456 60.5982 33.534 60.2376 33.3704 59.8087C33.2068 59.3798 33.1298 58.9022 33.1298 58.3759C33.1298 57.8495 33.2068 57.3817 33.3704 56.982C33.534 56.5726 33.7456 56.2217 34.0151 55.9196C34.2845 55.6174 34.5828 55.364 34.9196 55.1691C35.2564 54.9741 35.5931 54.8279 35.9492 54.7304C36.3052 54.633 36.642 54.5842 36.9691 54.5842C37.3348 54.5842 37.6523 54.6232 37.9218 54.7109C38.1912 54.7987 38.4125 54.8864 38.5761 54.9839C38.7397 55.0813 38.8551 55.1398 38.9032 55.1691C39.0283 55.2568 39.1534 55.3445 39.2689 55.4517C39.3844 55.5589 39.4421 55.6857 39.4517 55.8416C39.4517 55.9293 39.4325 56.0171 39.4036 56.1048C39.3747 56.1925 39.3266 56.2802 39.2593 56.368C39.1438 56.5337 39.0379 56.6506 38.9321 56.7286C38.8263 56.8066 38.7204 56.8456 38.6242 56.8456C38.5376 56.8456 38.4606 56.8261 38.3836 56.7773C38.3066 56.7383 38.2104 56.6799 38.1046 56.6019C38.0565 56.5629 37.9795 56.5239 37.8929 56.4654C37.8063 56.4069 37.6716 56.3582 37.5176 56.3192C37.354 56.2802 37.1616 56.251 36.9306 56.251C36.6805 56.251 36.4303 56.29 36.1801 56.3777C35.9299 56.4654 35.699 56.6019 35.4777 56.7773C35.266 56.9528 35.0928 57.1867 34.9677 57.4596C34.8426 57.7326 34.7752 58.064 34.7752 58.4344C34.7752 58.8048 34.8426 59.1362 34.9773 59.4091C35.112 59.682 35.2852 59.9062 35.4969 60.0914C35.7086 60.2668 35.9395 60.4033 36.1993 60.5008C36.4495 60.5885 36.6997 60.6372 36.9403 60.6372C37.152 60.6372 37.3348 60.6177 37.4791 60.569C37.6331 60.53 37.7582 60.4715 37.8736 60.413C37.9891 60.3546 38.0853 60.2961 38.1623 60.2473C38.2393 60.1986 38.3163 60.1499 38.4029 60.1109C38.4798 60.0719 38.5664 60.0426 38.653 60.0426C38.7493 60.0426 38.8551 60.0816 38.961 60.1596C39.0668 60.2376 39.1727 60.3643 39.2785 60.5397C39.3459 60.6372 39.394 60.7249 39.4228 60.8127C39.4517 60.9004 39.471 60.9881 39.471 61.0758C39.471 61.2318 39.4132 61.3488 39.2977 61.4462C39.1823 61.5437 39.0572 61.6314 38.9321 61.7094C38.884 61.7387 38.7781 61.7971 38.6146 61.8946C38.451 61.9921 38.2393 62.0798 37.9602 62.1675C37.6908 62.2455 37.3637 62.2942 36.9884 62.2942L36.9499 62.2845ZM36.642 64C36.4495 64 36.2667 63.9513 36.1031 63.8635C35.9395 63.7758 35.8337 63.6588 35.8145 63.5224C35.8145 63.4249 35.8529 63.3372 35.9203 63.2495C35.9877 63.1617 36.055 63.1033 36.1031 63.0643C36.1512 63.0253 36.1993 63.0058 36.2571 63.0058C36.3341 63.0058 36.4014 63.035 36.4592 63.0838C36.5073 63.1325 36.5842 63.1617 36.6805 63.1617C36.7382 63.1617 36.8056 63.1325 36.8729 63.0838C36.9403 63.035 36.9788 62.957 36.9788 62.8596C36.9788 62.7524 36.9403 62.6744 36.8729 62.6256C36.8056 62.5769 36.7382 62.5477 36.6708 62.5477C36.5842 62.5477 36.5073 62.5769 36.4495 62.6256C36.3822 62.6841 36.3148 62.7036 36.2475 62.7036C36.1801 62.7036 36.1127 62.6744 36.0646 62.6256C36.0165 62.5769 35.9684 62.5184 35.9299 62.4599C35.9011 62.4112 35.8818 62.3625 35.8626 62.3235C35.8433 62.2845 35.8337 62.2358 35.8337 62.2065C35.8337 62.109 35.8818 62.0311 35.9684 61.9531C36.055 61.8751 36.1705 61.8166 36.2956 61.7776C36.4207 61.7387 36.5458 61.7192 36.6708 61.7192C36.844 61.7192 37.0172 61.7581 37.1905 61.8459C37.3637 61.9336 37.508 62.0603 37.6331 62.226C37.7582 62.3917 37.8159 62.5964 37.8159 62.8498C37.8159 63.074 37.7678 63.269 37.6523 63.4444C37.5465 63.6199 37.4021 63.7563 37.2289 63.8538C37.0557 63.9513 36.8633 64.0097 36.6612 64.0097L36.642 64Z" fill="#8BC34A"/>
<path d="M43.6182 62.304C43.1082 62.304 42.6271 62.2065 42.1748 62.0116C41.7226 61.8166 41.3281 61.5437 40.9913 61.1928C40.6545 60.8419 40.3851 60.4423 40.1926 59.9744C40.0002 59.5163 39.904 59.0192 39.904 58.4831C39.904 57.947 40.0002 57.4401 40.183 56.9625C40.3658 56.4849 40.6353 56.0755 40.9624 55.7149C41.2896 55.3542 41.6745 55.0813 42.1171 54.8766C42.5597 54.6719 43.0312 54.5745 43.522 54.5745C44.0127 54.5745 44.5227 54.6719 44.9749 54.8669C45.4272 55.0618 45.8217 55.3445 46.1585 55.6954C46.4953 56.0463 46.7647 56.4557 46.9572 56.9235C47.1496 57.3914 47.2458 57.8983 47.2458 58.4441C47.2458 58.9899 47.1496 59.4676 46.9668 59.9354C46.784 60.4033 46.5145 60.8127 46.1874 61.1733C45.8506 61.534 45.4657 61.8069 45.0327 62.0018C44.5997 62.1968 44.1282 62.2942 43.6278 62.2942L43.6182 62.304ZM43.5701 60.6567C43.8588 60.6567 44.1186 60.5982 44.3687 60.4813C44.6189 60.3643 44.8402 60.2083 45.0231 60.0134C45.2155 59.8185 45.3598 59.5845 45.4561 59.3116C45.5619 59.0387 45.61 58.756 45.61 58.4441C45.61 58.1322 45.5523 57.8495 45.4464 57.5766C45.3406 57.3037 45.1963 57.0698 45.0038 56.8651C44.8114 56.6604 44.5997 56.5044 44.3495 56.3874C44.0993 56.2705 43.8395 56.2217 43.5508 56.2217C43.2622 56.2217 43.012 56.2802 42.7714 56.3874C42.5309 56.4947 42.3096 56.6604 42.1171 56.8651C41.9247 57.0698 41.7803 57.3037 41.6649 57.5766C41.559 57.8495 41.5013 58.1322 41.5013 58.4441C41.5013 58.756 41.559 59.0289 41.6649 59.3019C41.7707 59.5748 41.9247 59.8087 42.1171 60.0134C42.3096 60.2181 42.5212 60.374 42.7714 60.491C43.0216 60.608 43.2814 60.6665 43.5508 60.6665L43.5701 60.6567Z" fill="#8BC34A"/>
<path d="M50.3154 62.304C49.9401 62.304 49.6129 62.2552 49.3339 62.1675C49.0548 62.0701 48.8143 61.9628 48.6218 61.8264C48.4294 61.6899 48.2658 61.5632 48.1503 61.4365C48.0349 61.3098 47.9483 61.2123 47.9098 61.1441C47.7943 60.9881 47.7269 60.8517 47.6885 60.7249C47.6596 60.608 47.6692 60.4813 47.7269 60.3643C47.7847 60.2376 47.9001 60.1109 48.0541 59.9647C48.2081 59.838 48.3428 59.76 48.4775 59.7502C48.6122 59.7405 48.7373 59.7697 48.8624 59.8574C48.9875 59.9354 49.1126 60.0524 49.2377 60.1888C49.4109 60.3935 49.5744 60.5397 49.7476 60.6275C49.9112 60.7152 50.094 60.7542 50.2769 60.7542C50.5078 60.7542 50.7099 60.7249 50.8735 60.6665C51.037 60.608 51.1621 60.5203 51.2487 60.3935C51.3353 60.2668 51.3738 60.1109 51.3738 59.9159C51.3738 59.76 51.3161 59.6333 51.2006 59.5358C51.0851 59.4383 50.9312 59.3603 50.7291 59.2824C50.5367 59.2141 50.3154 59.1459 50.0748 59.0777C49.8342 59.0094 49.5937 58.9217 49.3531 58.8242C49.1992 58.7658 49.0452 58.6975 48.8912 58.6098C48.7373 58.5221 48.593 58.4344 48.4679 58.3174C48.3331 58.2102 48.2273 58.0737 48.1311 57.9275C48.0349 57.7813 47.9579 57.6058 47.9001 57.4109C47.8424 57.216 47.8135 56.9918 47.8135 56.7383C47.8135 56.3095 47.9194 55.9391 48.1311 55.6077C48.3428 55.2763 48.6314 55.0228 48.9971 54.8279C49.3627 54.633 49.7765 54.5355 50.248 54.5355C50.5752 54.5355 50.8542 54.5647 51.0948 54.6232C51.3353 54.6817 51.5374 54.7499 51.701 54.8279C51.8646 54.9059 51.9897 54.9839 52.0859 55.0618C52.1821 55.1398 52.2495 55.1983 52.2879 55.2373C52.49 55.4225 52.5959 55.5882 52.6151 55.7149C52.6343 55.8416 52.5574 56.0365 52.3938 56.2705C52.211 56.5239 52.0281 56.6604 51.8646 56.6896C51.6914 56.7189 51.4989 56.6604 51.2776 56.5044C51.191 56.4264 51.1044 56.3485 51.0178 56.29C50.9312 56.2217 50.835 56.173 50.7099 56.134C50.5848 56.095 50.4308 56.0755 50.2384 56.0755C50.1325 56.0755 50.0267 56.095 49.9305 56.1243C49.8342 56.1535 49.7476 56.2023 49.6707 56.2607C49.5937 56.3192 49.5456 56.3874 49.4975 56.4752C49.459 56.5531 49.4301 56.6506 49.4301 56.7481C49.4301 56.9235 49.4878 57.06 49.5937 57.1575C49.6995 57.2549 49.8535 57.3329 50.0267 57.3914C50.1999 57.4499 50.4116 57.5084 50.6329 57.5571C50.8542 57.6058 51.0851 57.6741 51.3161 57.7423C51.5278 57.8105 51.7395 57.8983 51.9319 58.0055C52.134 58.1127 52.3072 58.2394 52.4611 58.3954C52.6151 58.5513 52.7402 58.756 52.8364 58.9899C52.9326 59.2239 52.9808 59.5163 52.9808 59.8672C52.9808 60.2961 52.9038 60.6665 52.7402 60.9784C52.5766 61.2903 52.3553 61.5437 52.0859 61.7387C51.8164 61.9336 51.5278 62.0798 51.2102 62.1675C50.8927 62.2552 50.5944 62.304 50.2961 62.304H50.3154Z" fill="#8BC34A"/>
</g>
<defs>
<clipPath id="clip0_4211_698">
<rect width="53" height="64" fill="white"/>
</clipPath>
</defs>
</svg>
