<svg width="80" height="80" viewBox="0 0 80 80" fill="none" xmlns="http://www.w3.org/2000/svg">
<path d="M59.3018 48.5248C59.3018 52.8248 55.8143 56.3123 51.5143 56.3123C51.1143 56.2873 50.7268 56.2623 50.3643 56.2248C44.7268 55.7123 43.8769 53.9748 39.7644 53.9748C35.6894 53.9748 34.8519 55.6998 29.3269 56.2123C29.3269 56.2123 29.3269 56.2123 29.3144 56.2123C29.0394 56.2623 28.8269 56.2623 28.7394 56.2623C28.4269 56.2623 28.1894 56.2998 28.1519 56.2998C23.8519 56.2998 20.3644 52.8123 20.3644 48.5123C20.3644 44.7873 22.9769 41.6749 26.4644 40.9124C27.2019 40.6999 28.7019 40.1624 30.0894 38.7874C31.4019 37.4874 31.9519 36.0749 32.1769 35.3624C32.8144 32.0124 35.6269 29.3749 39.1769 29.0749C43.1769 28.7499 46.7268 31.4999 47.4643 35.3624C47.6893 36.0874 48.2518 37.4874 49.5518 38.7874C50.9018 40.1374 52.3768 40.6874 53.1143 40.8999C56.6393 41.6374 59.2893 44.7748 59.2893 48.5248H59.3018Z" fill="#3E2723"/>
<path d="M37.8772 19.1245C37.3397 22.6745 34.9147 27.5494 31.7772 27.4869C28.6648 27.4244 25.8148 22.537 26.2023 18.337C26.6773 13.2745 31.9272 8.86199 34.9522 9.88699C37.6022 10.787 38.3647 15.762 37.8647 19.112L37.8772 19.1245Z" fill="#3E2723"/>
<path d="M53.452 19.1242C53.4895 23.1616 50.3645 27.6116 47.352 27.4866C44.1395 27.3491 42.0645 22.0241 41.777 18.3367C41.5645 15.4867 42.1895 10.7117 44.6895 9.88668C47.7145 8.88668 53.402 13.7117 53.4395 19.1117L53.452 19.1242Z" fill="#3E2723"/>
<path d="M26.4521 35.362C25.5771 37.4245 22.9771 39.1369 20.3521 38.8369C16.7896 38.4244 15.3021 34.537 15.0771 33.9245C13.6021 29.812 15.6271 24.4745 18.2896 23.8745C21.9271 23.0495 28.4646 30.6495 26.4521 35.362Z" fill="#3E2723"/>
<path d="M53.1513 35.3619C54.0388 37.4119 56.6513 39.1244 59.2762 38.7994C62.7887 38.3744 64.2512 34.5869 64.5012 33.9119C65.9762 29.7994 63.9512 24.462 61.2887 23.862C57.6638 23.0495 51.1263 30.6494 53.1513 35.3494V35.3619Z" fill="#3E2723"/>
<path d="M73.8639 34.0749C73.8639 46.2374 66.6139 58.3248 55.8139 64.1623L57.0389 61.2623L53.9514 60.7623C63.5389 55.5748 69.9764 44.8624 69.9764 34.0874C69.9764 17.4499 56.4389 3.91249 39.8015 3.91249C21.9265 3.89999 9.76405 19.5124 9.61405 34.0999C9.50155 44.6999 15.9015 55.3873 25.5515 60.6873L22.4515 61.1998L23.6765 64.0998C18.464 61.2373 14.0015 56.9748 10.789 51.7498C7.41406 46.2874 5.66406 40.1749 5.72656 34.0624C5.81406 25.6499 9.35155 17.125 15.414 10.6875C21.889 3.79999 30.5515 0 39.789 0C58.5764 0 73.8639 15.2875 73.8639 34.0749Z" fill="#8BC34A"/>
<path d="M6.75179 77.712C6.41429 77.712 6.17679 77.662 6.02679 77.562C5.87679 77.462 5.78929 77.3245 5.76429 77.162C5.72679 76.9995 5.71429 76.8245 5.71429 76.6495V69.162C5.71429 68.987 5.72679 68.8245 5.76429 68.662C5.80179 68.4995 5.88929 68.3745 6.03929 68.2745C6.18929 68.1745 6.42679 68.1245 6.76429 68.1245H9.57678C9.95178 68.1245 10.3393 68.187 10.7268 68.3245C11.1143 68.462 11.4768 68.6745 11.8143 68.962C12.1518 69.2495 12.4143 69.5995 12.6268 70.0245C12.8393 70.4495 12.9393 70.937 12.9393 71.4995C12.9393 72.062 12.8393 72.562 12.6268 72.9745C12.4143 73.387 12.1518 73.737 11.8143 74.0245C11.4768 74.312 11.1143 74.512 10.7268 74.6495C10.3393 74.787 9.95178 74.8495 9.56428 74.8495H7.81429V76.6495C7.81429 76.8245 7.80179 76.987 7.76429 77.1495C7.72679 77.312 7.63929 77.437 7.48929 77.537C7.33929 77.637 7.10179 77.687 6.76429 77.687L6.75179 77.712ZM7.81429 72.787H9.57678C9.77678 72.787 9.97678 72.7495 10.1768 72.662C10.3768 72.5745 10.5393 72.437 10.6643 72.2495C10.7893 72.062 10.8643 71.812 10.8643 71.512C10.8643 71.262 10.8018 71.037 10.6893 70.837C10.5768 70.6495 10.4268 70.4995 10.2268 70.387C10.0393 70.2745 9.81428 70.2245 9.55178 70.2245H7.80179V72.7995L7.81429 72.787Z" fill="#3E2723"/>
<path d="M14.9896 77.712C14.6646 77.712 14.4271 77.662 14.2771 77.562C14.1271 77.462 14.0396 77.337 14.0146 77.1745C13.9771 77.012 13.9646 76.837 13.9646 76.662V69.162C13.9646 68.7745 14.0396 68.4995 14.2021 68.3495C14.3521 68.1995 14.6396 68.1245 15.0396 68.1245H20.2146C20.4021 68.1245 20.5646 68.137 20.7271 68.1745C20.8771 68.212 21.0146 68.2995 21.1146 68.437C21.2146 68.587 21.2646 68.8245 21.2646 69.1745C21.2646 69.4995 21.2146 69.737 21.1146 69.887C21.0146 70.037 20.8896 70.1245 20.7271 70.1495C20.5646 70.187 20.4021 70.1995 20.2146 70.1995H16.0646V71.962H18.8896C19.0771 71.962 19.2396 71.9745 19.3771 71.9995C19.5146 72.0245 19.6271 72.0995 19.7146 72.237C19.8021 72.362 19.8396 72.5745 19.8396 72.887C19.8396 73.1745 19.8021 73.3745 19.7146 73.4995C19.6271 73.6245 19.5146 73.6995 19.3646 73.737C19.2146 73.7745 19.0521 73.7745 18.8646 73.7745H16.0646V75.612H20.2271C20.4146 75.612 20.5771 75.6245 20.7396 75.662C20.8896 75.6995 21.0271 75.787 21.1271 75.9245C21.2271 76.062 21.2771 76.312 21.2771 76.662C21.2771 76.987 21.2271 77.2245 21.1271 77.3745C21.0271 77.5245 20.9021 77.612 20.7396 77.637C20.5771 77.6745 20.4146 77.687 20.2271 77.687H15.0146L14.9896 77.712Z" fill="#3E2723"/>
<path d="M29.3145 68.1246C29.4645 68.1246 29.6145 68.1371 29.752 68.1621C29.8895 68.1871 29.9895 68.2621 30.077 68.3996C30.1645 68.5246 30.202 68.7371 30.202 69.0246C30.202 69.3121 30.1645 69.5121 30.077 69.6371C29.9895 69.7621 29.8895 69.8371 29.752 69.8746C29.6145 69.9121 29.4645 69.9121 29.3145 69.9121H27.1145V76.6996C27.1145 76.8746 27.102 77.0371 27.0645 77.1871C27.027 77.3371 26.9395 77.4621 26.802 77.5621C26.6645 77.6621 26.4145 77.7121 26.0645 77.7121C25.7395 77.7121 25.5145 77.6621 25.3645 77.5621C25.2145 77.4621 25.127 77.3371 25.102 77.1746C25.0645 77.0121 25.052 76.8496 25.052 76.6746V69.8996H22.827C22.677 69.8996 22.5395 69.8871 22.402 69.8496C22.2645 69.8121 22.152 69.7371 22.0645 69.6121C21.977 69.4871 21.9395 69.2871 21.9395 68.9871C21.9395 68.6871 21.977 68.4996 22.0645 68.3746C22.152 68.2496 22.2645 68.1746 22.402 68.1371C22.5395 68.1121 22.677 68.0996 22.827 68.0996H29.327L29.3145 68.1246Z" fill="#3E2723"/>
<path d="M32.2994 77.712C31.9744 77.712 31.7244 77.662 31.5744 77.562C31.4244 77.462 31.3369 77.337 31.2994 77.1745C31.2619 77.012 31.2494 76.837 31.2494 76.662V69.162C31.2494 68.987 31.2619 68.8245 31.2994 68.662C31.3369 68.4995 31.4244 68.3745 31.5619 68.2745C31.7119 68.1745 31.9494 68.1245 32.2869 68.1245C32.6244 68.1245 32.8744 68.1745 33.0244 68.2745C33.1619 68.3745 33.2494 68.4995 33.2869 68.662C33.3244 68.8245 33.3369 68.987 33.3369 69.1745V75.887H37.0869C37.2369 75.887 37.3869 75.8995 37.5244 75.9245C37.6619 75.9495 37.7744 76.0245 37.8619 76.162C37.9494 76.287 37.9869 76.4995 37.9869 76.787C37.9869 77.0745 37.9369 77.2745 37.8494 77.412C37.7619 77.5495 37.6494 77.6245 37.5119 77.6495C37.3744 77.6745 37.2369 77.687 37.0744 77.687H32.2744L32.2994 77.712Z" fill="#8BC34A"/>
<path d="M47.6766 76.262C47.7891 76.487 47.8516 76.687 47.8516 76.8495C47.8516 77.012 47.8141 77.1495 47.7016 77.2745C47.6016 77.3995 47.4266 77.5245 47.1891 77.637C46.8266 77.8245 46.5391 77.8745 46.3391 77.7995C46.1391 77.7245 45.9516 77.512 45.7766 77.137L43.0891 71.5245L40.4141 77.137C40.2266 77.4995 40.0391 77.712 39.8391 77.7745C39.6391 77.837 39.3641 77.787 39.0016 77.612C38.7641 77.4995 38.5891 77.387 38.4766 77.262C38.3641 77.137 38.3141 76.987 38.3266 76.8245C38.3391 76.6495 38.4016 76.462 38.5266 76.2245L42.1266 68.7245C42.2141 68.537 42.3516 68.3995 42.5266 68.287C42.7016 68.1745 42.8891 68.1245 43.0766 68.1245C43.2141 68.1245 43.3391 68.1495 43.4641 68.1995C43.5891 68.2495 43.6891 68.3245 43.7891 68.412C43.8891 68.4995 43.9641 68.612 44.0266 68.737L47.6391 76.2495L47.6766 76.262ZM40.8016 75.4745L41.6516 73.712H44.5641L45.4141 75.4745H40.8016Z" fill="#8BC34A"/>
<path d="M53.2256 77.8251C52.8256 77.8251 52.4006 77.7626 51.9506 77.6376C51.5006 77.5126 51.0631 77.3251 50.6256 77.0626C50.1881 76.8001 49.8006 76.4751 49.4506 76.0876C49.1006 75.7001 48.8256 75.2251 48.6256 74.6876C48.4256 74.1501 48.3131 73.5376 48.3131 72.8626C48.3131 72.1876 48.4131 71.6001 48.6256 71.0876C48.8256 70.5751 49.1131 70.1251 49.4506 69.7376C49.8006 69.3501 50.1881 69.0376 50.6131 68.7876C51.0381 68.5376 51.4881 68.3501 51.9381 68.2251C52.3881 68.1001 52.8256 68.0376 53.2506 68.0376C53.7131 68.0376 54.1256 68.0876 54.4756 68.2001C54.8256 68.3126 55.1006 68.4251 55.3131 68.5376C55.5256 68.6501 55.6631 68.7376 55.7256 68.7751C55.8881 68.8876 56.0506 69.0001 56.1881 69.1376C56.3256 69.2751 56.4131 69.4251 56.4256 69.6251C56.4256 69.7376 56.4006 69.8501 56.3631 69.9501C56.3256 70.0626 56.2631 70.1751 56.1756 70.2751C56.0256 70.4876 55.8881 70.6376 55.7506 70.7376C55.6131 70.8376 55.4756 70.8876 55.3506 70.8876C55.2381 70.8876 55.1381 70.8626 55.0381 70.8001C54.9381 70.7501 54.8131 70.6751 54.6756 70.5751C54.6131 70.5251 54.5256 70.4751 54.4006 70.4001C54.2756 70.3251 54.1256 70.2751 53.9131 70.2126C53.7131 70.1626 53.4506 70.1251 53.1506 70.1251C52.8256 70.1251 52.5131 70.1751 52.1881 70.2876C51.8631 70.4001 51.5631 70.5626 51.2881 70.8001C51.0131 71.0251 50.8006 71.3126 50.6256 71.6751C50.4631 72.0251 50.3756 72.4376 50.3756 72.9126C50.3756 73.3876 50.4631 73.8001 50.6256 74.1501C50.8006 74.5001 51.0131 74.7876 51.2881 75.0126C51.5631 75.2376 51.8631 75.4126 52.1881 75.5251C52.5131 75.6376 52.8256 75.7001 53.1381 75.7001C53.4131 75.7001 53.6506 75.6751 53.8381 75.6126C54.0256 75.5626 54.2006 75.4876 54.3506 75.4126C54.5006 75.3376 54.6256 75.2626 54.7256 75.2001C54.8256 75.1376 54.9256 75.0751 55.0381 75.0251C55.1381 74.9751 55.2506 74.9376 55.3631 74.9376C55.4881 74.9376 55.6256 74.9876 55.7506 75.0876C55.8881 75.1876 56.0131 75.3501 56.1506 75.5626C56.2381 75.6876 56.3006 75.8001 56.3381 75.9126C56.3756 76.0251 56.4006 76.1376 56.4006 76.2501C56.4006 76.4376 56.3256 76.6001 56.1756 76.7251C56.0256 76.8501 55.8631 76.9626 55.7006 77.0626C55.6381 77.1001 55.5006 77.1751 55.2881 77.3001C55.0756 77.4251 54.8006 77.5376 54.4506 77.6376C54.1006 77.7376 53.6881 77.8001 53.2006 77.8001L53.2256 77.8251ZM52.8256 80.0001C52.5756 80.0001 52.3506 79.9376 52.1256 79.8251C51.9006 79.7126 51.7881 79.5626 51.7506 79.3876C51.7506 79.2626 51.8006 79.1501 51.8881 79.0501C51.9756 78.9501 52.0631 78.8626 52.1256 78.8126C52.1881 78.7626 52.2506 78.7501 52.3131 78.7501C52.4131 78.7501 52.5006 78.7876 52.5631 78.8501C52.6256 78.9126 52.7256 78.9501 52.8381 78.9501C52.9131 78.9501 52.9881 78.9126 53.0881 78.8501C53.1756 78.7876 53.2256 78.6876 53.2256 78.5626C53.2256 78.4251 53.1756 78.3251 53.0881 78.2626C53.0006 78.2001 52.9131 78.1626 52.8256 78.1626C52.7131 78.1626 52.6256 78.2001 52.5381 78.2626C52.4506 78.3251 52.3631 78.3626 52.2756 78.3626C52.1881 78.3626 52.1006 78.3251 52.0381 78.2626C51.9756 78.2001 51.9131 78.1251 51.8631 78.0501C51.8256 77.9876 51.8006 77.9251 51.7756 77.8751C51.7506 77.8251 51.7381 77.7751 51.7381 77.7251C51.7381 77.6001 51.8006 77.5001 51.9131 77.4001C52.0256 77.3001 52.1756 77.2251 52.3381 77.1751C52.5006 77.1251 52.6631 77.1001 52.8131 77.1001C53.0381 77.1001 53.2506 77.1501 53.4756 77.2626C53.7006 77.3751 53.8881 77.5376 54.0506 77.7376C54.2006 77.9501 54.2881 78.2126 54.2881 78.5376C54.2881 78.8251 54.2256 79.0751 54.0881 79.2876C53.9506 79.5126 53.7631 79.6751 53.5381 79.8126C53.3131 79.9376 53.0631 80.0001 52.8131 80.0001H52.8256Z" fill="#8BC34A"/>
<path d="M61.8012 77.8501C61.1387 77.8501 60.5262 77.7251 59.9387 77.4751C59.3637 77.2251 58.8512 76.8751 58.4137 76.4376C57.9762 76.0001 57.6387 75.4751 57.3887 74.9001C57.1387 74.3126 57.0137 73.6876 57.0137 73.0126C57.0137 72.3376 57.1387 71.6876 57.3762 71.0751C57.6137 70.4626 57.9512 69.9501 58.3762 69.4876C58.8012 69.0376 59.3012 68.6751 59.8637 68.4251C60.4262 68.1751 61.0387 68.0376 61.6762 68.0376C62.3137 68.0376 62.9637 68.1626 63.5512 68.4126C64.1262 68.6626 64.6387 69.0126 65.0762 69.4626C65.5137 69.9126 65.8512 70.4251 66.1012 71.0251C66.3512 71.6251 66.4762 72.2626 66.4762 72.9626C66.4762 73.6626 66.3512 74.2626 66.1137 74.8501C65.8762 75.4376 65.5387 75.9626 65.1012 76.4251C64.6762 76.8751 64.1762 77.2251 63.6137 77.4751C63.0512 77.7251 62.4512 77.8501 61.8137 77.8501H61.8012ZM61.7387 75.7626C62.1012 75.7626 62.4512 75.6876 62.7637 75.5376C63.0887 75.3876 63.3637 75.1876 63.6012 74.9376C63.8387 74.6876 64.0262 74.3876 64.1637 74.0501C64.3012 73.7126 64.3637 73.3376 64.3637 72.9501C64.3637 72.5626 64.3012 72.1876 64.1637 71.8501C64.0262 71.5126 63.8387 71.2001 63.6012 70.9501C63.3637 70.6876 63.0762 70.4876 62.7637 70.3501C62.4512 70.2126 62.1137 70.1376 61.7387 70.1376C61.3637 70.1376 61.0512 70.2126 60.7262 70.3501C60.4012 70.4876 60.1262 70.6876 59.8887 70.9501C59.6512 71.2126 59.4512 71.5126 59.3137 71.8501C59.1762 72.1876 59.1012 72.5626 59.1012 72.9501C59.1012 73.3376 59.1762 73.7001 59.3137 74.0376C59.4512 74.3751 59.6512 74.6751 59.8887 74.9376C60.1262 75.1876 60.4137 75.4001 60.7262 75.5376C61.0387 75.6751 61.3762 75.7626 61.7387 75.7626Z" fill="#8BC34A"/>
<path d="M70.4134 77.8497C69.9259 77.8497 69.5009 77.7872 69.1509 77.6747C68.7884 77.5622 68.4884 77.4122 68.2384 77.2372C67.9884 77.0622 67.7884 76.8997 67.6384 76.7372C67.4884 76.5747 67.3884 76.4497 67.3259 76.3622C67.1759 76.1622 67.0884 75.9872 67.0509 75.8372C67.0134 75.6872 67.0259 75.5372 67.1009 75.3747C67.1759 75.2247 67.3134 75.0497 67.5134 74.8622C67.7009 74.6997 67.8884 74.6122 68.0509 74.5997C68.2259 74.5872 68.3884 74.6247 68.5509 74.7247C68.7134 74.8247 68.8759 74.9622 69.0259 75.1497C69.2509 75.4122 69.4634 75.5997 69.6759 75.6997C69.8884 75.7997 70.1134 75.8622 70.3509 75.8622C70.6509 75.8622 70.9134 75.8247 71.1134 75.7497C71.3259 75.6747 71.4884 75.5622 71.5884 75.3997C71.7009 75.2372 71.7509 75.0372 71.7509 74.7872C71.7509 74.5872 71.6759 74.4247 71.5259 74.2997C71.3759 74.1747 71.1759 74.0747 70.9259 73.9872C70.6759 73.8997 70.4009 73.8122 70.0884 73.7247C69.7884 73.6372 69.4759 73.5372 69.1634 73.3997C68.9634 73.3247 68.7634 73.2372 68.5634 73.1372C68.3634 73.0372 68.1884 72.9122 68.0134 72.7622C67.8384 72.6247 67.7009 72.4497 67.5759 72.2622C67.4509 72.0747 67.3509 71.8497 67.2759 71.5997C67.2009 71.3497 67.1634 71.0747 67.1634 70.7497C67.1634 70.2122 67.3009 69.7372 67.5634 69.3122C67.8384 68.8997 68.2009 68.5622 68.6759 68.3247C69.1509 68.0747 69.6884 67.9497 70.2884 67.9497C70.7134 67.9497 71.0759 67.9872 71.3759 68.0622C71.6759 68.1372 71.9384 68.2247 72.1509 68.3247C72.3634 68.4247 72.5259 68.5247 72.6509 68.6247C72.7759 68.7247 72.8634 68.7997 72.9009 68.8497C73.1509 69.0872 73.3009 69.2872 73.3259 69.4622C73.3509 69.6372 73.2634 69.8622 73.0384 70.1622C72.8009 70.4872 72.5759 70.6622 72.3509 70.6997C72.1259 70.7372 71.8759 70.6622 71.6009 70.4622C71.4884 70.3622 71.3759 70.2747 71.2759 70.1872C71.1634 70.0997 71.0384 70.0372 70.8884 69.9872C70.7384 69.9372 70.5384 69.9122 70.2759 69.9122C70.1384 69.9122 70.0009 69.9372 69.8759 69.9747C69.7509 70.0122 69.6384 70.0747 69.5509 70.1497C69.4634 70.2247 69.3884 70.3122 69.3259 70.4122C69.2759 70.5122 69.2384 70.6372 69.2384 70.7622C69.2384 70.9872 69.3134 71.1497 69.4509 71.2872C69.5884 71.4122 69.7759 71.5122 70.0134 71.5872C70.2509 71.6622 70.5009 71.7372 70.7884 71.7997C71.0759 71.8622 71.3759 71.9497 71.6759 72.0372C71.9509 72.1247 72.2134 72.2372 72.4759 72.3747C72.7259 72.5122 72.9634 72.6747 73.1634 72.8747C73.3634 73.0747 73.5259 73.3247 73.6509 73.6247C73.7759 73.9247 73.8384 74.2997 73.8384 74.7372C73.8384 75.2872 73.7384 75.7497 73.5259 76.1497C73.3134 76.5372 73.0384 76.8622 72.6884 77.1122C72.3384 77.3622 71.9634 77.5372 71.5634 77.6497C71.1634 77.7622 70.7634 77.8247 70.3884 77.8247L70.4134 77.8497Z" fill="#8BC34A"/>
</svg>
