<svg width="237" height="393" viewBox="0 0 237 393" fill="none" xmlns="http://www.w3.org/2000/svg">
<path d="M8.13049 68.4346C5.05747 67.0688 3.67286 63.4687 5.03868 60.3956C5.1836 60.1177 5.32455 59.8487 5.4665 59.6016C7.62342 55.7355 9.13512 55.6799 10.4414 52.7409C11.7358 49.8287 10.769 48.6822 12.1577 44.571C12.1577 44.571 12.1577 44.571 12.1616 44.562C12.2132 44.3496 12.2807 44.1978 12.3085 44.1352C12.4078 43.9119 12.4564 43.7303 12.4683 43.7035C13.8342 40.6304 17.4343 39.2458 20.5073 40.6117C23.1694 41.7948 24.5639 44.6505 24.0011 47.3851C23.9187 47.9796 23.8264 49.2223 24.3683 50.6507C24.8805 52.0016 25.7153 52.8433 26.153 53.2304C28.3446 54.7501 29.3361 57.5978 28.4229 60.2301C27.3847 63.192 24.2918 64.8555 21.2971 64.1557C20.7076 64.0862 19.5284 64.0435 18.1864 64.5597C16.7928 65.0956 15.9312 65.9751 15.5451 66.4346C13.8984 68.7195 10.8144 69.6168 8.13446 68.4257L8.13049 68.4346Z" fill="#3E2723"/>
<path d="M35.9469 62.4626C33.5806 60.9509 30.8669 57.6694 31.9082 55.447C32.9415 53.2425 37.3396 52.7581 40.2181 54.3691C43.6852 56.3166 45.171 61.4701 43.4776 63.3064C41.9927 64.9143 38.1951 63.879 35.9598 62.4576L35.9469 62.4626Z" fill="#3E2723"/>
<path d="M31 73.5932C28.1026 72.3376 25.915 68.6908 26.9612 66.5776C28.0799 64.3255 32.5445 64.5339 35.2711 65.4998C37.3754 66.2531 40.5894 68.2165 40.3849 70.2652C40.1387 72.7447 34.8839 75.2767 31.0129 73.5883L31 73.5932Z" fill="#3E2723"/>
<path d="M27.9714 49.1393C26.7754 47.8588 26.3774 45.4568 27.4256 43.6761C28.8519 41.2612 32.1026 41.4329 32.6118 41.4667C36.0194 41.7188 39.1906 44.8614 38.7737 46.9547C38.2079 49.8163 30.7 52.0744 27.9714 49.1393Z" fill="#3E2723"/>
<path d="M19.491 68.2204C17.7441 68.2035 15.6904 69.5266 15.0889 71.5058C14.2769 74.151 16.5191 76.3992 16.9221 76.7923C19.3926 79.1527 23.8503 79.4009 25.1248 77.6887C26.8569 75.3561 23.502 68.2701 19.4999 68.2243L19.491 68.2204Z" fill="#3E2723"/>
<path d="M56.1304 34.4346C53.0573 33.0688 51.6727 29.4687 53.0386 26.3956C53.1835 26.1177 53.3244 25.8487 53.4664 25.6016C55.6233 21.7355 57.135 21.6799 58.4413 18.7409C59.7356 15.8287 58.7689 14.6822 60.1575 10.571C60.1575 10.571 60.1575 10.571 60.1615 10.562C60.2131 10.3496 60.2806 10.1978 60.3084 10.1352C60.4077 9.9119 60.4563 9.73026 60.4682 9.70346C61.834 6.63044 65.4342 5.24583 68.5072 6.61165C71.1693 7.79484 72.5638 10.6505 72.001 13.3851C71.9186 13.9796 71.8263 15.2223 72.3682 16.6507C72.8804 18.0016 73.7151 18.8433 74.1529 19.2304C76.3445 20.7501 77.336 23.5978 76.4228 26.2301C75.3845 29.192 72.2916 30.8555 69.297 30.1557C68.7074 30.0862 67.5282 30.0435 66.1863 30.5597C64.7927 31.0956 63.9311 31.9751 63.545 32.4346C61.8983 34.7195 58.8143 35.6168 56.1343 34.4257L56.1304 34.4346Z" fill="#3E2723"/>
<path d="M83.9468 28.4626C81.5805 26.9509 78.8668 23.6694 79.9081 21.447C80.9414 19.2425 85.3395 18.7581 88.218 20.3691C91.685 22.3166 93.1709 27.4701 91.4775 29.3064C89.9926 30.9143 86.195 29.879 83.9597 28.4576L83.9468 28.4626Z" fill="#3E2723"/>
<path d="M78.9998 39.5932C76.1025 38.3376 73.9149 34.6908 74.9611 32.5776C76.0798 30.3255 80.5444 30.5339 83.271 31.4998C85.3753 32.2531 88.5892 34.2165 88.3847 36.2652C88.1386 38.7447 82.8838 41.2767 79.0127 39.5883L78.9998 39.5932Z" fill="#3E2723"/>
<path d="M75.9713 15.1393C74.7752 13.8588 74.3772 11.4568 75.4254 9.67609C76.8518 7.26115 80.1025 7.4329 80.6117 7.46666C84.0192 7.71881 87.1905 10.8614 86.7736 12.9547C86.2078 15.8163 78.6999 18.0744 75.9713 15.1393Z" fill="#3E2723"/>
<path d="M67.4909 34.2204C65.7439 34.2035 63.6903 35.5266 63.0887 37.5058C62.2768 40.151 64.519 42.3992 64.922 42.7923C67.3925 45.1527 71.8502 45.4009 73.1247 43.6887C74.8568 41.3561 71.5019 34.2701 67.4998 34.2243L67.4909 34.2204Z" fill="#3E2723"/>
<path d="M79.3555 111.436C77.4704 107.664 79.0005 103.076 82.7723 101.191C83.1341 101.038 83.4849 100.89 83.8193 100.764C88.9889 98.7419 90.4962 99.8933 94.1034 98.0904C97.6778 96.3039 97.6562 94.4237 102.278 91.552C102.278 91.552 102.278 91.552 102.289 91.5466C102.508 91.3821 102.694 91.289 102.771 91.2506C103.045 91.1136 103.237 90.9766 103.27 90.9602C107.042 89.0751 111.63 90.6052 113.515 94.3769C115.148 97.6443 114.221 101.52 111.496 103.717C110.942 104.227 109.862 105.356 109.248 107.171C108.667 108.886 108.803 110.366 108.918 111.09C109.828 114.308 108.517 117.854 105.535 119.674C102.169 121.712 97.8493 120.857 95.5091 117.792C94.9939 117.255 93.8868 116.273 92.1766 115.703C90.4006 115.111 88.8657 115.275 88.1256 115.412C84.7104 116.31 81.0105 114.72 79.3665 111.431L79.3555 111.436Z" fill="#3E2723"/>
<path d="M111.037 127.833C109.952 124.483 109.942 119.144 112.721 117.824C115.479 116.514 120.121 119.552 121.622 123.405C123.425 128.054 120.755 134.226 117.652 134.653C114.933 135.026 112.083 130.996 111.053 127.838L111.037 127.833Z" fill="#3E2723"/>
<path d="M97.3754 134.661C95.5725 131.136 96.3627 125.862 99.0599 124.651C101.938 123.364 106.093 127.125 107.961 130.233C109.397 132.64 110.942 137.102 109.111 138.922C106.896 141.125 99.7921 139.386 97.3919 134.666L97.3754 134.661Z" fill="#3E2723"/>
<path d="M113.94 108.581C113.803 106.388 115.333 103.746 117.767 102.859C121.073 101.659 124.082 104.417 124.548 104.855C127.644 107.816 128.208 113.385 126.136 115.079C123.307 117.397 114.241 113.597 113.94 108.581Z" fill="#3E2723"/>
<path d="M90.5208 120.286C88.8436 118.877 85.8013 118.52 83.6413 119.956C80.7466 121.868 81.1242 125.832 81.2009 126.533C81.71 130.787 85.8262 134.581 88.4246 133.94C91.9604 133.064 94.3629 123.532 90.5262 120.297L90.5208 120.286Z" fill="#3E2723"/>
<path d="M125.193 76.1763C121.34 74.4638 119.603 69.9497 121.316 66.0966C121.498 65.7481 121.674 65.4108 121.852 65.101C124.557 60.2534 126.452 60.1838 128.09 56.4986C129.713 52.8471 128.501 51.4096 130.242 46.2547C130.242 46.2547 130.242 46.2547 130.247 46.2435C130.312 45.9772 130.396 45.7868 130.431 45.7083C130.556 45.4283 130.617 45.2006 130.632 45.167C132.344 41.3138 136.858 39.5777 140.711 41.2903C144.049 42.7738 145.798 46.3544 145.092 49.7832C144.989 50.5287 144.873 52.0869 145.553 53.8778C146.195 55.5716 147.241 56.627 147.79 57.1124C150.538 59.0179 151.782 62.5885 150.637 65.8891C149.335 69.6028 145.457 71.6887 141.702 70.8112C140.963 70.7241 139.484 70.6705 137.801 71.3177C136.054 71.9897 134.974 73.0924 134.49 73.6686C132.425 76.5336 128.558 77.6586 125.198 76.1651L125.193 76.1763Z" fill="#3E2723"/>
<path d="M160.071 68.6886C157.104 66.7931 153.701 62.6786 155.007 59.8921C156.302 57.1279 161.817 56.5206 165.426 58.5406C169.773 60.9824 171.636 67.4442 169.513 69.7466C167.651 71.7628 162.889 70.4647 160.087 68.6824L160.071 68.6886Z" fill="#3E2723"/>
<path d="M153.868 82.6444C150.235 81.07 147.492 76.4975 148.804 73.8478C150.206 71.024 155.804 71.2854 159.223 72.4964C161.862 73.441 165.891 75.9028 165.635 78.4716C165.326 81.5805 158.738 84.7553 153.884 82.6382L153.868 82.6444Z" fill="#3E2723"/>
<path d="M150.07 51.9829C148.571 50.3775 148.072 47.3656 149.386 45.1329C151.174 42.1049 155.25 42.3203 155.889 42.3626C160.161 42.6787 164.138 46.6191 163.615 49.2438C162.906 52.8319 153.492 55.6631 150.07 51.9829Z" fill="#3E2723"/>
<path d="M139.437 75.9081C137.247 75.8869 134.672 77.5459 133.917 80.0275C132.899 83.3443 135.711 86.1632 136.216 86.6561C139.314 89.6157 144.903 89.9269 146.501 87.78C148.673 84.8553 144.466 75.9704 139.448 75.9131L139.437 75.9081Z" fill="#3E2723"/>
<path d="M170.061 168.297C167.258 164.349 168.187 158.874 172.135 156.072C172.519 155.834 172.891 155.605 173.248 155.403C178.758 152.199 180.671 153.24 184.447 150.56C188.188 147.904 187.833 145.775 192.571 141.703C192.571 141.703 192.571 141.703 192.583 141.695C192.803 141.47 192.998 141.332 193.078 141.275C193.365 141.071 193.559 140.882 193.593 140.857C197.541 138.055 203.016 138.984 205.818 142.932C208.246 146.352 207.876 150.912 205.171 153.885C204.632 154.561 203.606 156.032 203.228 158.199C202.87 160.248 203.286 161.903 203.543 162.704C205.141 166.195 204.278 170.449 201.214 173.039C197.754 175.944 192.702 175.733 189.508 172.667C188.829 172.148 187.4 171.229 185.359 170.883C183.24 170.523 181.527 170.98 180.711 171.265C176.994 172.886 172.516 171.732 170.072 168.289L170.061 168.297Z" fill="#3E2723"/>
<path d="M208.893 181.326C207.072 177.717 206.122 171.661 209.043 169.673C211.941 167.702 217.743 170.332 220.125 174.44C222.988 179.398 221.044 186.871 217.598 187.901C214.579 188.802 210.636 184.731 208.912 181.33L208.893 181.326Z" fill="#3E2723"/>
<path d="M194.593 191.478C191.927 187.795 191.896 181.673 194.744 179.824C197.783 177.857 203.158 181.394 205.825 184.592C207.878 187.07 210.416 191.861 208.659 194.248C206.533 197.138 198.167 196.415 194.613 191.481L194.593 191.478Z" fill="#3E2723"/>
<path d="M208.8 158.972C208.259 156.508 209.53 153.241 212.135 151.805C215.675 149.862 219.574 152.462 220.18 152.878C224.215 155.692 225.834 161.913 223.781 164.199C220.979 167.327 210.023 164.61 208.8 158.972Z" fill="#3E2723"/>
<path d="M184.286 176.373C182.135 175.069 178.621 175.199 176.422 177.209C173.475 179.888 174.6 184.319 174.811 185.101C176.137 189.838 181.474 193.419 184.31 192.235C188.168 190.618 189.217 179.38 184.294 176.384L184.286 176.373Z" fill="#3E2723"/>
<path d="M123.254 204.129C124.507 199.453 129.316 196.676 133.992 197.929C134.42 198.073 134.834 198.213 135.218 198.359C141.199 200.56 141.617 202.697 146.09 203.895C150.522 205.083 151.935 203.451 158.093 204.503C158.093 204.503 158.093 204.503 158.107 204.507C158.421 204.533 158.652 204.595 158.747 204.62C159.087 204.711 159.356 204.74 159.397 204.751C164.073 206.004 166.85 210.813 165.597 215.489C164.511 219.541 160.763 222.164 156.748 221.977C155.884 221.993 154.096 222.141 152.186 223.232C150.38 224.263 149.37 225.639 148.918 226.349C147.248 229.806 143.421 231.855 139.473 231.147C135.028 230.335 131.968 226.309 132.292 221.894C132.259 221.04 132.055 219.353 131.02 217.56C129.945 215.699 128.501 214.671 127.761 214.225C124.142 212.395 122.174 208.211 123.267 204.133L123.254 204.129Z" fill="#3E2723"/>
<path d="M137.987 242.347C139.606 238.642 143.664 234.047 147.058 235.03C150.425 236.005 152.1 242.15 150.455 246.605C148.463 251.973 141.467 255.242 138.476 253.245C135.856 251.494 136.477 245.861 137.997 242.364L137.987 242.347Z" fill="#3E2723"/>
<path d="M121.048 237.809C122.184 233.407 126.879 229.478 130.119 230.492C133.573 231.578 134.278 237.974 133.516 242.068C132.916 245.23 130.845 250.241 127.886 250.409C124.304 250.615 119.525 243.71 121.058 237.827L121.048 237.809Z" fill="#3E2723"/>
<path d="M155.145 228.017C156.698 226.029 160.024 224.924 162.792 226.015C166.546 227.502 167.031 232.163 167.097 232.895C167.503 237.797 163.745 243.012 160.675 242.889C156.478 242.726 151.583 232.555 155.145 228.017Z" fill="#3E2723"/>
<path d="M126.107 220.237C125.74 217.748 123.397 215.125 120.448 214.713C116.504 214.152 113.81 217.845 113.341 218.506C110.538 222.549 111.185 228.944 113.906 230.372C117.612 232.312 126.936 225.952 126.104 220.25L126.107 220.237Z" fill="#3E2723"/>
<path d="M158.48 295.549C160.377 290.56 165.962 288.052 170.951 289.95C171.404 290.155 171.843 290.355 172.247 290.559C178.562 293.641 178.781 296.032 183.553 297.846C188.281 299.644 190.013 298.012 196.65 299.855C196.65 299.855 196.65 299.855 196.664 299.861C197.006 299.924 197.252 300.018 197.354 300.057C197.716 300.194 198.008 300.256 198.052 300.272C203.041 302.17 205.548 307.755 203.651 312.744C202.008 317.066 197.603 319.524 193.22 318.87C192.271 318.791 190.293 318.753 188.077 319.736C185.98 320.665 184.719 322.062 184.144 322.789C181.926 326.394 177.499 328.214 173.248 326.995C168.463 325.608 165.558 320.851 166.406 316.044C166.465 315.103 166.43 313.231 165.496 311.149C164.525 308.987 163.056 307.698 162.294 307.126C158.53 304.715 156.84 299.905 158.494 295.554L158.48 295.549Z" fill="#3E2723"/>
<path d="M170.365 339.115C172.555 335.233 177.519 330.647 181.132 332.104C184.716 333.55 185.866 340.478 183.563 345.18C180.778 350.844 172.74 353.647 169.683 351.123C167.005 348.91 168.316 342.801 170.374 339.135L170.365 339.115Z" fill="#3E2723"/>
<path d="M152.294 332.242C154.032 327.541 159.621 323.756 163.061 325.231C166.728 326.808 166.786 333.901 165.493 338.307C164.482 341.707 161.65 346.972 158.385 346.826C154.434 346.651 149.964 338.544 152.303 332.262L152.294 332.242Z" fill="#3E2723"/>
<path d="M190.786 325.316C192.711 323.309 196.483 322.469 199.396 323.975C203.348 326.026 203.358 331.192 203.349 332.002C203.246 337.425 198.541 342.724 195.188 342.245C190.603 341.598 186.371 329.895 190.786 325.316Z" fill="#3E2723"/>
<path d="M159.808 313.536C159.682 310.765 157.407 307.626 154.218 306.845C149.955 305.788 146.587 309.537 145.999 310.21C142.473 314.331 142.468 321.417 145.292 323.288C149.139 325.83 160.078 319.897 159.802 313.55L159.808 313.536Z" fill="#3E2723"/>
<path d="M71.6433 319.438C75.9308 316.259 81.9866 317.158 85.1659 321.445C85.4367 321.862 85.6982 322.267 85.9289 322.657C89.586 328.657 88.482 330.789 91.5226 334.889C94.5355 338.952 96.8747 338.512 101.471 343.642C101.471 343.642 101.471 343.642 101.48 343.655C101.733 343.892 101.89 344.104 101.955 344.191C102.186 344.503 102.399 344.712 102.427 344.749C105.606 349.036 104.707 355.092 100.419 358.272C96.7053 361.026 91.6703 360.722 88.3315 357.808C87.5743 357.23 85.9294 356.132 83.5325 355.765C81.2659 355.418 79.4509 355.914 78.5741 356.216C74.7625 358.057 70.0532 357.203 67.1294 353.885C63.8479 350.137 63.9652 344.564 67.2712 340.973C67.8277 340.213 68.8077 338.617 69.1428 336.359C69.4907 334.015 68.9486 332.138 68.6152 331.245C66.7443 327.185 67.9134 322.223 71.6525 319.451L71.6433 319.438Z" fill="#3E2723"/>
<path d="M58.1678 362.539C62.1049 360.45 68.7587 359.264 71.0161 362.438C73.255 365.588 70.4889 372.043 66.0146 374.762C60.6156 378.031 52.3343 376.059 51.1198 372.285C50.0579 368.977 54.4547 364.539 58.1646 362.56L58.1678 362.539Z" fill="#3E2723"/>
<path d="M46.653 347.008C50.651 343.986 57.3985 343.811 59.5012 346.908C61.7393 350.212 57.9639 356.218 54.4997 359.231C51.8151 361.55 46.5919 364.458 43.9209 362.575C40.6873 360.298 41.2932 351.06 46.6497 347.03L46.653 347.008Z" fill="#3E2723"/>
<path d="M82.8065 361.924C85.51 361.271 89.1398 362.598 90.7815 365.437C93.0042 369.294 90.2278 373.651 89.7834 374.329C86.7734 378.84 79.9542 380.767 77.3874 378.556C73.8754 375.539 76.6198 363.401 82.8065 361.924Z" fill="#3E2723"/>
<path d="M63.0656 335.303C64.4535 332.902 64.2294 329.031 61.9646 326.654C58.9438 323.466 54.086 324.808 53.2281 325.058C48.037 326.628 44.2123 332.593 45.5825 335.691C47.4526 339.907 59.864 340.806 63.0532 335.312L63.0656 335.303Z" fill="#3E2723"/>
</svg>
